<?xml version="1.0" standalone="no"?>
<!DOCTYPE svg PUBLIC "-//W3C//DTD SVG 20010904//EN"
 "http://www.w3.org/TR/2001/REC-SVG-20010904/DTD/svg10.dtd">
<svg version="1.0" xmlns="http://www.w3.org/2000/svg"
 width="300.000000pt" height="300.000000pt" viewBox="0 0 300.000000 300.000000"
 preserveAspectRatio="xMidYMid meet">

<g transform="translate(0.000000,300.000000) scale(0.100000,-0.100000)"
fill="#000000" stroke="none">
<path d="M970 1595 l0 -435 50 0 50 0 0 435 0 435 -50 0 -50 0 0 -435z"/>
<path d="M2340 1595 l0 -435 50 0 50 0 0 103 0 103 38 36 37 36 125 -139 125
-138 69 -1 68 0 -123 133 c-68 72 -139 149 -158 170 l-35 37 144 145 145 145
-62 0 -61 0 -150 -155 c-82 -85 -152 -155 -156 -155 -3 0 -6 124 -6 275 l0
275 -50 0 -50 0 0 -435z"/>
<path d="M190 1580 l0 -422 203 5 c238 5 276 15 347 86 118 119 85 309 -64
366 l-46 18 44 41 c106 99 79 254 -52 301 -36 14 -92 19 -239 22 l-193 5 0
-422z m375 306 c49 -21 69 -56 62 -112 -10 -89 -58 -114 -222 -114 l-115 0 0
120 0 120 120 0 c81 0 132 -5 155 -14z m61 -346 c87 -42 102 -165 28 -233 -38
-36 -95 -47 -238 -47 l-126 0 0 150 0 150 147 0 c127 0 152 -3 189 -20z"/>
<path d="M1280 1945 l0 -55 55 0 55 0 0 55 0 55 -55 0 -55 0 0 -55z"/>
<path d="M1847 1796 c-27 -7 -69 -27 -93 -44 l-44 -32 0 35 0 35 -50 0 -50 0
0 -315 0 -315 50 0 50 0 2 242 3 242 63 33 c85 44 157 46 203 5 26 -23 32 -37
39 -97 5 -39 9 -150 10 -247 l0 -178 51 0 51 0 -4 243 c-5 259 -10 291 -61
345 -49 52 -136 72 -220 48z"/>
<path d="M1290 1475 l0 -315 50 0 50 0 0 315 0 315 -50 0 -50 0 0 -315z"/>
</g>
</svg>
