<?xml version="1.0" standalone="no"?>
<!DOCTYPE svg PUBLIC "-//W3C//DTD SVG 20010904//EN"
 "http://www.w3.org/TR/2001/REC-SVG-20010904/DTD/svg10.dtd">
<svg version="1.0" xmlns="http://www.w3.org/2000/svg"
 width="300.000000pt" height="300.000000pt" viewBox="0 0 300.000000 300.000000"
 preserveAspectRatio="xMidYMid meet">

<g transform="translate(0.000000,300.000000) scale(0.100000,-0.100000)"
fill="#000000" stroke="none">
<path d="M1026 2993 c-11 -11 -6 -23 9 -23 8 0 15 4 15 9 0 13 -16 22 -24 14z"/>
<path d="M1107 2993 c-12 -11 -8 -23 8 -23 8 0 15 7 15 15 0 16 -12 20 -23 8z"/>
<path d="M1190 2986 c0 -9 7 -16 16 -16 9 0 14 5 12 12 -6 18 -28 21 -28 4z"/>
<path d="M1277 2993 c-12 -11 -8 -23 8 -23 8 0 15 7 15 15 0 16 -12 20 -23 8z"/>
<path d="M1356 2991 c-3 -5 1 -14 8 -20 16 -13 32 2 21 19 -8 12 -22 13 -29 1z"/>
<path d="M1442 2984 c4 -21 22 -23 26 -1 2 10 -3 17 -13 17 -10 0 -15 -6 -13
-16z"/>
<path d="M1524 2989 c-10 -17 13 -36 27 -22 12 12 4 33 -11 33 -5 0 -12 -5
-16 -11z"/>
<path d="M1612 2984 c4 -21 22 -23 26 -1 2 10 -3 17 -13 17 -10 0 -15 -6 -13
-16z"/>
<path d="M1694 2989 c-10 -17 13 -36 27 -22 12 12 4 33 -11 33 -5 0 -12 -5
-16 -11z"/>
<path d="M1782 2984 c4 -21 22 -23 26 -1 2 10 -3 17 -13 17 -10 0 -15 -6 -13
-16z"/>
<path d="M1867 2994 c-13 -13 -7 -24 14 -24 11 0 19 5 17 12 -5 14 -22 21 -31
12z"/>
<path d="M1950 2986 c0 -9 7 -16 16 -16 9 0 14 5 12 12 -6 18 -28 21 -28 4z"/>
<path d="M2037 2994 c-8 -8 1 -24 14 -24 5 0 9 7 9 15 0 15 -12 20 -23 9z"/>
<path d="M2126 2993 c-11 -11 -6 -23 9 -23 8 0 15 4 15 9 0 13 -16 22 -24 14z"/>
<path d="M770 2980 c0 -5 5 -10 10 -10 6 0 10 5 10 10 0 6 -4 10 -10 10 -5 0
-10 -4 -10 -10z"/>
<path d="M850 2980 c0 -5 4 -10 9 -10 6 0 13 5 16 10 3 6 -1 10 -9 10 -9 0
-16 -4 -16 -10z"/>
<path d="M940 2980 c0 -5 5 -10 10 -10 6 0 10 5 10 10 0 6 -4 10 -10 10 -5 0
-10 -4 -10 -10z"/>
<path d="M2210 2980 c0 -5 5 -10 10 -10 6 0 10 5 10 10 0 6 -4 10 -10 10 -5 0
-10 -4 -10 -10z"/>
<path d="M2290 2980 c0 -5 5 -10 10 -10 6 0 10 5 10 10 0 6 -4 10 -10 10 -5 0
-10 -4 -10 -10z"/>
<path d="M2380 2979 c0 -5 5 -7 10 -4 6 3 10 8 10 11 0 2 -4 4 -10 4 -5 0 -10
-5 -10 -11z"/>
<path d="M2465 2980 c3 -5 8 -10 11 -10 2 0 4 5 4 10 0 6 -5 10 -11 10 -5 0
-7 -4 -4 -10z"/>
<path d="M1406 2913 c-12 -12 -6 -33 9 -33 8 0 15 6 15 14 0 17 -14 28 -24 19z"/>
<path d="M1484 2909 c-8 -14 11 -33 25 -25 6 4 11 11 11 16 0 13 -29 20 -36 9z"/>
<path d="M1576 2913 c-12 -12 -6 -33 9 -33 8 0 15 6 15 14 0 17 -14 28 -24 19z"/>
<path d="M1657 2913 c-4 -3 -7 -12 -7 -20 0 -15 26 -18 34 -4 7 11 -18 33 -27
24z"/>
<path d="M1746 2913 c-12 -12 -6 -33 9 -33 8 0 15 6 15 14 0 17 -14 28 -24 19z"/>
<path d="M645 2900 c-3 -5 -1 -10 4 -10 6 0 11 5 11 10 0 6 -2 10 -4 10 -3 0
-8 -4 -11 -10z"/>
<path d="M730 2900 c0 -5 5 -10 11 -10 5 0 7 5 4 10 -3 6 -8 10 -11 10 -2 0
-4 -4 -4 -10z"/>
<path d="M810 2900 c0 -5 5 -10 10 -10 6 0 10 5 10 10 0 6 -4 10 -10 10 -5 0
-10 -4 -10 -10z"/>
<path d="M895 2901 c-6 -11 9 -23 19 -14 9 9 7 23 -3 23 -6 0 -12 -4 -16 -9z"/>
<path d="M980 2895 c0 -8 5 -15 10 -15 6 0 10 7 10 15 0 8 -4 15 -10 15 -5 0
-10 -7 -10 -15z"/>
<path d="M1062 2899 c2 -6 8 -10 13 -10 5 0 11 4 13 10 2 6 -4 11 -13 11 -9 0
-15 -5 -13 -11z"/>
<path d="M1145 2901 c-7 -12 12 -24 25 -16 11 7 4 25 -10 25 -5 0 -11 -4 -15
-9z"/>
<path d="M1230 2895 c0 -8 7 -15 15 -15 8 0 15 7 15 15 0 8 -7 15 -15 15 -8 0
-15 -7 -15 -15z"/>
<path d="M1313 2898 c2 -7 10 -13 17 -13 7 0 15 6 18 13 2 7 -5 12 -18 12 -13
0 -20 -5 -17 -12z"/>
<path d="M1822 2898 c6 -18 28 -21 28 -4 0 9 -7 16 -16 16 -9 0 -14 -5 -12
-12z"/>
<path d="M1910 2894 c0 -17 22 -14 28 4 2 7 -3 12 -12 12 -9 0 -16 -7 -16 -16z"/>
<path d="M1992 2898 c6 -18 28 -21 28 -4 0 9 -7 16 -16 16 -9 0 -14 -5 -12
-12z"/>
<path d="M2080 2895 c0 -9 5 -15 11 -13 6 2 11 8 11 13 0 5 -5 11 -11 13 -6 2
-11 -4 -11 -13z"/>
<path d="M2165 2901 c-6 -11 9 -23 19 -14 9 9 7 23 -3 23 -6 0 -12 -4 -16 -9z"/>
<path d="M2250 2900 c0 -5 5 -10 10 -10 6 0 10 5 10 10 0 6 -4 10 -10 10 -5 0
-10 -4 -10 -10z"/>
<path d="M856 2823 c-11 -11 -6 -23 9 -23 8 0 15 4 15 9 0 13 -16 22 -24 14z"/>
<path d="M935 2819 c-10 -15 1 -23 20 -15 9 3 13 10 10 16 -8 13 -22 13 -30
-1z"/>
<path d="M1020 2815 c0 -8 7 -15 15 -15 8 0 15 7 15 15 0 8 -7 15 -15 15 -8 0
-15 -7 -15 -15z"/>
<path d="M1100 2816 c0 -8 4 -17 8 -20 13 -8 35 11 28 23 -10 16 -36 14 -36
-3z"/>
<path d="M1184 2819 c-8 -14 11 -33 25 -25 6 4 11 14 11 22 0 16 -26 19 -36 3z"/>
<path d="M1272 2813 c2 -10 10 -18 18 -18 22 0 18 29 -3 33 -14 3 -18 -1 -15
-15z"/>
<path d="M1352 2813 c2 -10 10 -18 18 -18 8 0 16 8 18 18 2 12 -3 17 -18 17
-15 0 -20 -5 -18 -17z"/>
<path d="M1440 2810 c0 -15 5 -20 18 -18 9 2 17 10 17 18 0 8 -8 16 -17 18
-13 2 -18 -3 -18 -18z"/>
<path d="M1522 2813 c2 -10 10 -18 18 -18 8 0 16 8 18 18 2 12 -3 17 -18 17
-15 0 -20 -5 -18 -17z"/>
<path d="M1607 2823 c-3 -5 -2 -15 3 -22 10 -17 43 -6 38 12 -6 15 -34 22 -41
10z"/>
<path d="M1692 2813 c2 -10 10 -18 18 -18 8 0 16 8 18 18 2 12 -3 17 -18 17
-15 0 -20 -5 -18 -17z"/>
<path d="M1777 2824 c-9 -9 4 -34 18 -34 14 0 27 25 18 34 -4 3 -12 6 -18 6
-6 0 -14 -3 -18 -6z"/>
<path d="M1862 2813 c2 -10 10 -18 18 -18 8 0 16 8 18 18 2 12 -3 17 -18 17
-15 0 -20 -5 -18 -17z"/>
<path d="M1946 2821 c-7 -11 18 -33 27 -24 4 3 7 12 7 20 0 15 -26 18 -34 4z"/>
<path d="M2030 2816 c0 -8 4 -17 8 -20 13 -8 35 11 28 23 -10 16 -36 14 -36
-3z"/>
<path d="M2120 2815 c0 -8 7 -15 15 -15 8 0 15 7 15 15 0 8 -7 15 -15 15 -8 0
-15 -7 -15 -15z"/>
<path d="M2207 2823 c-12 -11 -8 -23 8 -23 8 0 15 7 15 15 0 16 -12 20 -23 8z"/>
<path d="M2290 2816 c0 -9 7 -16 16 -16 9 0 14 5 12 12 -6 18 -28 21 -28 4z"/>
<path d="M2376 2822 c-3 -6 -1 -14 5 -17 15 -10 25 3 12 16 -7 7 -13 7 -17 1z"/>
<path d="M685 2810 c4 -6 11 -8 16 -5 14 9 11 15 -7 15 -8 0 -12 -5 -9 -10z"/>
<path d="M770 2810 c0 -5 5 -10 10 -10 6 0 10 5 10 10 0 6 -4 10 -10 10 -5 0
-10 -4 -10 -10z"/>
<path d="M2460 2810 c0 -5 5 -10 10 -10 6 0 10 5 10 10 0 6 -4 10 -10 10 -5 0
-10 -4 -10 -10z"/>
<path d="M2550 2809 c0 -5 5 -7 10 -4 6 3 10 8 10 11 0 2 -4 4 -10 4 -5 0 -10
-5 -10 -11z"/>
<path d="M811 2736 c-9 -10 -9 -16 -1 -21 17 -10 37 12 24 25 -8 8 -15 6 -23
-4z"/>
<path d="M893 2735 c-7 -20 2 -29 21 -22 9 4 13 13 10 22 -8 19 -23 19 -31 0z"/>
<path d="M977 2744 c-14 -15 -6 -34 14 -34 14 0 19 5 17 17 -3 18 -20 27 -31
17z"/>
<path d="M1056 2735 c-3 -9 1 -18 10 -22 19 -7 39 11 30 26 -10 16 -33 13 -40
-4z"/>
<path d="M1140 2730 c0 -13 7 -20 20 -20 13 0 20 7 20 20 0 13 -7 20 -20 20
-13 0 -20 -7 -20 -20z"/>
<path d="M1224 2735 c-8 -19 12 -36 33 -28 19 7 12 37 -10 41 -9 2 -20 -4 -23
-13z"/>
<path d="M1312 2728 c2 -13 10 -23 18 -23 8 0 16 10 18 23 3 17 -2 22 -18 22
-16 0 -21 -5 -18 -22z"/>
<path d="M1394 2735 c-4 -9 -2 -21 3 -26 14 -14 45 1 41 20 -4 22 -37 26 -44
6z"/>
<path d="M1477 2736 c-7 -17 18 -40 33 -31 5 3 10 15 10 26 0 23 -35 27 -43 5z"/>
<path d="M1560 2731 c0 -27 19 -36 37 -18 18 18 9 37 -18 37 -12 0 -19 -7 -19
-19z"/>
<path d="M1644 2739 c-8 -14 21 -43 35 -35 6 4 11 16 11 27 0 21 -34 27 -46 8z"/>
<path d="M1730 2731 c0 -27 19 -36 37 -18 18 18 9 37 -18 37 -12 0 -19 -7 -19
-19z"/>
<path d="M1814 2739 c-3 -6 0 -17 7 -25 18 -17 44 -2 36 20 -7 18 -33 21 -43
5z"/>
<path d="M1907 2743 c-14 -13 -6 -33 13 -33 13 0 20 7 20 20 0 19 -20 27 -33
13z"/>
<path d="M1990 2730 c0 -15 5 -20 18 -18 9 2 17 10 17 18 0 8 -8 16 -17 18
-13 2 -18 -3 -18 -18z"/>
<path d="M2077 2744 c-14 -15 -6 -34 14 -34 14 0 19 5 17 17 -3 18 -20 27 -31
17z"/>
<path d="M2166 2743 c-12 -12 -6 -33 9 -33 8 0 15 6 15 14 0 17 -14 28 -24 19z"/>
<path d="M475 2730 c-3 -5 -1 -10 4 -10 6 0 11 5 11 10 0 6 -2 10 -4 10 -3 0
-8 -4 -11 -10z"/>
<path d="M560 2730 c0 -5 5 -10 10 -10 6 0 10 5 10 10 0 6 -4 10 -10 10 -5 0
-10 -4 -10 -10z"/>
<path d="M642 2729 c2 -6 8 -10 13 -10 5 0 11 4 13 10 2 6 -4 11 -13 11 -9 0
-15 -5 -13 -11z"/>
<path d="M722 2728 c6 -18 28 -21 28 -4 0 9 -7 16 -16 16 -9 0 -14 -5 -12 -12z"/>
<path d="M2243 2728 c2 -7 10 -13 17 -13 7 0 15 6 18 13 2 7 -5 12 -18 12 -13
0 -20 -5 -17 -12z"/>
<path d="M2332 2729 c2 -6 8 -10 13 -10 5 0 11 4 13 10 2 6 -4 11 -13 11 -9 0
-15 -5 -13 -11z"/>
<path d="M2420 2725 c0 -8 5 -15 10 -15 6 0 10 7 10 15 0 8 -4 15 -10 15 -5 0
-10 -7 -10 -15z"/>
<path d="M2500 2730 c0 -5 7 -10 16 -10 8 0 12 5 9 10 -3 6 -10 10 -16 10 -5
0 -9 -4 -9 -10z"/>
<path d="M2590 2730 c0 -5 5 -10 10 -10 6 0 10 5 10 10 0 6 -4 10 -10 10 -5 0
-10 -4 -10 -10z"/>
<path d="M933 2654 c-7 -19 11 -39 26 -30 16 10 13 33 -4 40 -9 3 -18 -1 -22
-10z"/>
<path d="M1014 2655 c-7 -18 3 -35 21 -35 21 0 28 19 15 35 -16 19 -29 19 -36
0z"/>
<path d="M1100 2655 c-10 -11 -10 -19 -2 -27 15 -15 44 -2 40 19 -4 23 -22 27
-38 8z"/>
<path d="M1187 2664 c-4 -4 -7 -16 -7 -26 0 -14 6 -19 23 -16 14 2 22 10 22
23 0 20 -25 32 -38 19z"/>
<path d="M1264 2656 c-8 -21 3 -36 27 -36 15 0 20 6 17 22 -4 27 -35 37 -44
14z"/>
<path d="M1347 2657 c-8 -21 8 -39 29 -35 27 5 25 42 -2 46 -12 2 -24 -3 -27
-11z"/>
<path d="M1437 2663 c-4 -3 -7 -15 -7 -25 0 -13 7 -18 25 -18 20 0 25 5 25 25
0 18 -5 25 -18 25 -10 0 -22 -3 -25 -7z"/>
<path d="M1516 2654 c-4 -10 -2 -22 3 -27 15 -15 46 -3 46 18 0 26 -40 33 -49
9z"/>
<path d="M1607 2664 c-12 -12 -8 -42 6 -47 21 -8 39 8 35 29 -3 19 -29 30 -41
18z"/>
<path d="M1684 2655 c-4 -9 -2 -21 4 -27 16 -16 47 -5 47 17 0 26 -42 34 -51
10z"/>
<path d="M1777 2664 c-4 -4 -7 -16 -7 -26 0 -13 7 -18 26 -18 21 0 25 4 22 22
-3 23 -27 35 -41 22z"/>
<path d="M1854 2655 c-8 -20 4 -35 26 -35 23 0 32 13 24 34 -8 20 -43 21 -50
1z"/>
<path d="M1944 2655 c-4 -9 -2 -21 4 -27 15 -15 44 -1 40 19 -4 23 -36 29 -44
8z"/>
<path d="M2033 2659 c-16 -16 -5 -39 19 -39 14 0 19 6 16 22 -4 25 -19 33 -35
17z"/>
<path d="M2114 2655 c-7 -18 3 -35 21 -35 21 0 28 19 15 35 -16 19 -29 19 -36
0z"/>
<path d="M2206 2663 c-3 -4 -6 -15 -6 -25 0 -24 33 -21 38 3 3 17 -21 33 -32
22z"/>
<path d="M516 2652 c-3 -6 -1 -14 5 -17 15 -10 25 3 12 16 -7 7 -13 7 -17 1z"/>
<path d="M600 2645 c0 -9 5 -15 11 -13 6 2 11 8 11 13 0 5 -5 11 -11 13 -6 2
-11 -4 -11 -13z"/>
<path d="M680 2645 c0 -8 7 -15 15 -15 8 0 15 7 15 15 0 8 -7 15 -15 15 -8 0
-15 -7 -15 -15z"/>
<path d="M762 2643 c2 -10 10 -18 18 -18 22 0 18 29 -3 33 -14 3 -18 -1 -15
-15z"/>
<path d="M846 2652 c-8 -13 11 -35 23 -28 16 10 14 36 -3 36 -8 0 -17 -4 -20
-8z"/>
<path d="M2284 2649 c-8 -14 11 -33 25 -25 6 4 11 14 11 22 0 16 -26 19 -36 3z"/>
<path d="M2370 2646 c0 -8 4 -17 9 -20 11 -7 33 18 24 27 -12 12 -33 7 -33 -7z"/>
<path d="M2460 2646 c0 -9 7 -16 16 -16 9 0 14 5 12 12 -6 18 -28 21 -28 4z"/>
<path d="M2547 2653 c-12 -11 -8 -23 8 -23 8 0 15 7 15 15 0 16 -12 20 -23 8z"/>
<path d="M2636 2651 c-4 -7 -5 -15 -2 -18 9 -9 19 4 14 18 -4 11 -6 11 -12 0z"/>
<path d="M430 2640 c0 -5 5 -10 10 -10 6 0 10 5 10 10 0 6 -4 10 -10 10 -5 0
-10 -4 -10 -10z"/>
<path d="M2720 2639 c0 -5 5 -7 10 -4 6 3 10 8 10 11 0 2 -4 4 -10 4 -5 0 -10
-5 -10 -11z"/>
<path d="M977 2577 c-16 -11 -16 -14 -3 -32 14 -19 16 -19 33 -2 15 15 16 19
2 32 -12 13 -18 13 -32 2z"/>
<path d="M1054 2576 c-9 -24 4 -48 23 -44 12 2 18 12 18 28 0 29 -32 41 -41
16z"/>
<path d="M1140 2575 c-18 -21 -5 -47 22 -43 26 3 37 36 16 49 -18 12 -24 11
-38 -6z"/>
<path d="M1224 2576 c-9 -24 4 -48 23 -44 12 2 18 12 18 28 0 29 -32 41 -41
16z"/>
<path d="M1304 2576 c-10 -26 4 -48 28 -44 17 2 23 10 23 28 0 18 -6 26 -23
28 -13 2 -25 -3 -28 -12z"/>
<path d="M1391 2576 c-15 -18 -4 -46 19 -46 28 0 45 27 30 45 -16 19 -34 19
-49 1z"/>
<path d="M1474 2576 c-10 -26 4 -48 28 -44 17 2 23 10 23 28 0 18 -6 26 -23
28 -13 2 -25 -3 -28 -12z"/>
<path d="M1555 2570 c-8 -26 6 -43 31 -38 13 2 19 12 19 28 0 34 -40 41 -50
10z"/>
<path d="M1644 2575 c-9 -23 3 -45 25 -45 25 0 34 14 26 40 -7 23 -43 27 -51
5z"/>
<path d="M1731 2577 c-17 -21 -3 -49 23 -45 15 2 21 10 21 28 0 28 -26 38 -44
17z"/>
<path d="M1814 2575 c-9 -23 3 -45 25 -45 23 0 35 28 20 46 -15 18 -38 18 -45
-1z"/>
<path d="M1901 2577 c-17 -21 -3 -49 23 -45 15 2 21 10 21 28 0 28 -26 38 -44
17z"/>
<path d="M1984 2576 c-9 -24 4 -48 23 -44 24 4 24 52 0 56 -9 2 -20 -4 -23
-12z"/>
<path d="M2075 2576 c-19 -14 -19 -16 -2 -33 16 -16 18 -16 34 0 15 15 16 19
2 32 -13 13 -17 13 -34 1z"/>
<path d="M554 2569 c-8 -14 11 -33 25 -25 11 7 4 36 -9 36 -5 0 -12 -5 -16
-11z"/>
<path d="M635 2571 c-8 -15 3 -31 21 -31 9 0 14 7 12 17 -4 20 -24 28 -33 14z"/>
<path d="M720 2560 c0 -15 5 -20 18 -18 9 2 17 10 17 18 0 8 -8 16 -17 18 -13
2 -18 -3 -18 -18z"/>
<path d="M800 2560 c0 -13 7 -20 18 -20 24 0 32 8 25 26 -8 22 -43 17 -43 -6z"/>
<path d="M885 2570 c-9 -15 14 -40 31 -33 22 8 18 43 -5 43 -11 0 -23 -5 -26
-10z"/>
<path d="M2153 2564 c-7 -18 14 -35 34 -27 7 3 13 14 13 24 0 24 -38 26 -47 3z"/>
<path d="M2240 2560 c0 -13 7 -20 20 -20 13 0 20 7 20 20 0 13 -7 20 -20 20
-13 0 -20 -7 -20 -20z"/>
<path d="M2325 2570 c-4 -7 -3 -16 3 -22 14 -14 45 -2 40 15 -6 16 -34 21 -43
7z"/>
<path d="M2414 2569 c-10 -17 13 -36 27 -22 12 12 4 33 -11 33 -5 0 -12 -5
-16 -11z"/>
<path d="M2506 2573 c-12 -12 -6 -33 9 -33 8 0 15 6 15 14 0 17 -14 28 -24 19z"/>
<path d="M220 2560 c0 -5 5 -10 11 -10 5 0 7 5 4 10 -3 6 -8 10 -11 10 -2 0
-4 -4 -4 -10z"/>
<path d="M305 2560 c-3 -5 -1 -10 4 -10 6 0 11 5 11 10 0 6 -2 10 -4 10 -3 0
-8 -4 -11 -10z"/>
<path d="M390 2560 c0 -5 5 -10 10 -10 6 0 10 5 10 10 0 6 -4 10 -10 10 -5 0
-10 -4 -10 -10z"/>
<path d="M472 2559 c2 -6 8 -10 13 -10 5 0 11 4 13 10 2 6 -4 11 -13 11 -9 0
-15 -5 -13 -11z"/>
<path d="M2582 2559 c2 -6 8 -10 13 -10 5 0 11 4 13 10 2 6 -4 11 -13 11 -9 0
-15 -5 -13 -11z"/>
<path d="M2670 2560 c0 -5 7 -10 16 -10 8 0 12 5 9 10 -3 6 -10 10 -16 10 -5
0 -9 -4 -9 -10z"/>
<path d="M2760 2560 c0 -5 5 -10 10 -10 6 0 10 5 10 10 0 6 -4 10 -10 10 -5 0
-10 -4 -10 -10z"/>
<path d="M1103 2503 c-19 -7 -16 -50 3 -57 19 -7 44 10 44 30 0 16 -30 33 -47
27z"/>
<path d="M1179 2494 c-16 -20 0 -49 27 -49 35 0 28 64 -7 65 -4 0 -12 -7 -20
-16z"/>
<path d="M1261 2491 c-13 -24 9 -57 33 -48 23 9 31 34 16 52 -17 20 -37 19
-49 -4z"/>
<path d="M1352 2501 c-21 -13 -11 -55 14 -59 30 -4 48 21 34 47 -11 22 -27 26
-48 12z"/>
<path d="M1429 2494 c-17 -21 0 -49 32 -49 27 0 37 28 19 50 -16 19 -34 19
-51 -1z"/>
<path d="M1514 2496 c-10 -25 0 -51 20 -54 27 -6 48 25 35 49 -12 22 -47 25
-55 5z"/>
<path d="M1599 2494 c-17 -21 0 -49 32 -49 27 0 37 28 19 50 -16 19 -34 19
-51 -1z"/>
<path d="M1684 2496 c-11 -29 0 -51 26 -51 21 0 25 5 25 30 0 24 -5 31 -23 33
-13 2 -24 -3 -28 -12z"/>
<path d="M1770 2496 c-27 -33 18 -72 48 -42 13 13 14 20 6 34 -15 23 -38 26
-54 8z"/>
<path d="M1862 2501 c-8 -4 -12 -19 -10 -32 2 -18 9 -24 28 -24 19 0 26 6 28
24 3 20 -11 41 -28 41 -3 0 -11 -4 -18 -9z"/>
<path d="M1940 2495 c-14 -17 -7 -43 15 -51 15 -6 45 11 45 27 0 4 -7 15 -16
23 -19 20 -28 20 -44 1z"/>
<path d="M2032 2498 c-17 -17 -15 -45 4 -52 19 -7 44 10 44 30 0 20 -34 36
-48 22z"/>
<path d="M680 2486 c-13 -17 -6 -36 15 -36 19 0 26 27 11 39 -10 8 -17 7 -26
-3z"/>
<path d="M767 2494 c-15 -15 -7 -45 11 -42 9 2 17 12 17 22 0 20 -16 31 -28
20z"/>
<path d="M844 2485 c-4 -9 -2 -21 4 -27 15 -15 44 -1 40 19 -4 23 -36 29 -44
8z"/>
<path d="M924 2485 c-8 -20 4 -35 26 -35 23 0 32 13 24 34 -8 20 -43 21 -50 1z"/>
<path d="M1006 2485 c-7 -19 20 -46 39 -39 8 4 15 17 15 30 0 19 -5 24 -24 24
-13 0 -26 -7 -30 -15z"/>
<path d="M2107 2486 c-4 -9 1 -22 9 -30 20 -20 46 -9 42 18 -4 25 -43 34 -51
12z"/>
<path d="M2194 2485 c-8 -19 3 -35 26 -35 19 0 30 17 23 38 -6 17 -42 15 -49
-3z"/>
<path d="M2287 2494 c-4 -4 -7 -16 -7 -26 0 -14 6 -19 23 -16 14 2 22 10 22
23 0 20 -25 32 -38 19z"/>
<path d="M2366 2484 c-4 -10 -2 -22 3 -27 14 -14 43 0 39 20 -4 24 -34 28 -42
7z"/>
<path d="M2453 2484 c-8 -21 13 -42 28 -27 13 13 5 43 -11 43 -6 0 -13 -7 -17
-16z"/>
<path d="M346 2482 c-3 -6 -1 -14 5 -17 15 -10 25 3 12 16 -7 7 -13 7 -17 1z"/>
<path d="M430 2475 c0 -9 5 -15 11 -13 6 2 11 8 11 13 0 5 -5 11 -11 13 -6 2
-11 -4 -11 -13z"/>
<path d="M510 2475 c0 -8 7 -15 15 -15 8 0 15 7 15 15 0 8 -7 15 -15 15 -8 0
-15 -7 -15 -15z"/>
<path d="M592 2473 c2 -10 10 -18 18 -18 8 0 16 8 18 18 2 12 -3 17 -18 17
-15 0 -20 -5 -18 -17z"/>
<path d="M2540 2476 c0 -8 4 -17 9 -20 11 -7 33 18 24 27 -12 12 -33 7 -33 -7z"/>
<path d="M2627 2484 c-9 -10 2 -24 19 -24 8 0 14 7 14 15 0 15 -21 21 -33 9z"/>
<path d="M2710 2475 c0 -8 7 -15 15 -15 8 0 15 7 15 15 0 8 -7 15 -15 15 -8 0
-15 -7 -15 -15z"/>
<path d="M2800 2475 c0 -8 5 -15 10 -15 6 0 10 7 10 15 0 8 -4 15 -10 15 -5 0
-10 -7 -10 -15z"/>
<path d="M265 2470 c3 -5 8 -10 11 -10 2 0 4 5 4 10 0 6 -5 10 -11 10 -5 0 -7
-4 -4 -10z"/>
<path d="M2890 2469 c0 -5 5 -7 10 -4 6 3 10 8 10 11 0 2 -4 4 -10 4 -5 0 -10
-5 -10 -11z"/>
<path d="M1147 2418 c-21 -11 -22 -54 -2 -62 31 -12 61 17 49 48 -8 20 -27 26
-47 14z"/>
<path d="M1220 2415 c-26 -31 13 -82 44 -56 19 16 21 42 4 59 -16 16 -33 15
-48 -3z"/>
<path d="M1306 2414 c-9 -8 -16 -19 -16 -24 0 -5 7 -16 16 -24 8 -9 19 -16 24
-16 5 0 16 7 24 16 9 8 16 19 16 24 0 5 -7 16 -16 24 -8 9 -19 16 -24 16 -5 0
-16 -7 -24 -16z"/>
<path d="M1390 2415 c-26 -31 13 -82 44 -56 19 16 21 42 4 59 -16 16 -33 15
-48 -3z"/>
<path d="M1472 2418 c-25 -25 -6 -68 30 -68 9 0 22 9 28 19 13 25 13 27 -6 45
-19 19 -36 20 -52 4z"/>
<path d="M1563 2423 c-22 -8 -16 -61 7 -68 39 -12 66 35 38 63 -13 13 -24 14
-45 5z"/>
<path d="M1642 2418 c-23 -23 -7 -68 24 -68 14 0 44 27 44 40 0 13 -30 40 -44
40 -6 0 -17 -5 -24 -12z"/>
<path d="M1733 2423 c-22 -8 -16 -61 7 -68 43 -14 69 44 31 65 -11 5 -21 10
-23 9 -2 0 -9 -3 -15 -6z"/>
<path d="M1818 2419 c-22 -12 -23 -42 -2 -60 31 -26 70 25 44 56 -14 17 -19
18 -42 4z"/>
<path d="M1907 2418 c-20 -11 -22 -41 -3 -57 26 -22 63 10 50 43 -8 20 -27 26
-47 14z"/>
<path d="M723 2413 c-19 -7 -16 -40 4 -47 21 -8 36 6 31 30 -3 19 -16 25 -35
17z"/>
<path d="M800 2405 c-11 -13 -11 -19 3 -32 21 -21 49 -9 45 19 -4 28 -30 35
-48 13z"/>
<path d="M884 2405 c-9 -23 3 -45 25 -45 23 0 35 28 20 46 -15 18 -38 18 -45
-1z"/>
<path d="M964 2406 c-10 -26 4 -48 28 -44 17 2 23 10 23 28 0 18 -6 26 -23 28
-13 2 -25 -3 -28 -12z"/>
<path d="M1045 2399 c-10 -30 19 -53 47 -38 29 15 20 53 -14 57 -20 2 -28 -2
-33 -19z"/>
<path d="M1977 2406 c-11 -28 4 -47 32 -44 20 2 26 8 26 28 0 20 -6 26 -26 28
-17 2 -29 -3 -32 -12z"/>
<path d="M2064 2406 c-10 -26 4 -48 28 -44 17 2 23 10 23 28 0 18 -6 26 -23
28 -13 2 -25 -3 -28 -12z"/>
<path d="M2154 2405 c-8 -21 2 -45 19 -45 8 0 20 7 27 15 10 12 10 18 0 30 -7
8 -19 15 -27 15 -7 0 -16 -7 -19 -15z"/>
<path d="M2241 2406 c-17 -20 -2 -48 23 -44 24 3 34 37 14 49 -18 12 -24 11
-37 -5z"/>
<path d="M2331 2410 c-19 -11 -9 -45 14 -45 13 0 21 8 23 21 3 23 -17 37 -37
24z"/>
<path d="M384 2399 c-10 -17 13 -36 27 -22 12 12 4 33 -11 33 -5 0 -12 -5 -16
-11z"/>
<path d="M465 2400 c-8 -14 3 -30 21 -30 8 0 14 9 14 20 0 21 -24 28 -35 10z"/>
<path d="M550 2390 c0 -13 7 -20 20 -20 13 0 20 7 20 20 0 13 -7 20 -20 20
-13 0 -20 -7 -20 -20z"/>
<path d="M630 2391 c0 -24 25 -34 40 -16 15 18 5 35 -21 35 -12 0 -19 -7 -19
-19z"/>
<path d="M2410 2390 c0 -13 7 -20 20 -20 13 0 20 7 20 20 0 13 -7 20 -20 20
-13 0 -20 -7 -20 -20z"/>
<path d="M2495 2400 c-4 -7 -3 -16 3 -22 14 -14 45 -2 40 15 -6 16 -34 21 -43
7z"/>
<path d="M2584 2399 c-10 -17 13 -36 27 -22 12 12 4 33 -11 33 -5 0 -12 -5
-16 -11z"/>
<path d="M2670 2390 c0 -13 5 -20 13 -17 6 2 12 10 12 17 0 7 -6 15 -12 18 -8
2 -13 -5 -13 -18z"/>
<path d="M220 2390 c0 -5 5 -10 10 -10 6 0 10 5 10 10 0 6 -4 10 -10 10 -5 0
-10 -4 -10 -10z"/>
<path d="M302 2389 c2 -6 8 -10 13 -10 5 0 11 4 13 10 2 6 -4 11 -13 11 -9 0
-15 -5 -13 -11z"/>
<path d="M2750 2390 c0 -5 7 -10 15 -10 8 0 15 5 15 10 0 6 -7 10 -15 10 -8 0
-15 -4 -15 -10z"/>
<path d="M2840 2390 c0 -5 5 -10 10 -10 6 0 10 5 10 10 0 6 -4 10 -10 10 -5 0
-10 -4 -10 -10z"/>
<path d="M2930 2390 c0 -5 5 -10 11 -10 5 0 7 5 4 10 -3 6 -8 10 -11 10 -2 0
-4 -4 -4 -10z"/>
<path d="M1345 2334 c-12 -12 -19 -13 -30 -4 -8 6 -24 10 -37 8 -18 -2 -23 -9
-23 -33 0 -24 5 -31 23 -33 13 -2 30 2 38 9 10 8 18 9 22 3 12 -19 40 -23 58
-9 15 11 22 10 40 -1 21 -14 54 -10 54 7 0 5 11 2 25 -7 23 -15 27 -15 49 -1
21 14 26 14 36 2 7 -8 18 -15 25 -15 7 0 18 7 25 15 10 12 15 12 36 -2 21 -14
27 -14 47 0 19 12 25 12 44 0 19 -13 24 -12 42 6 18 18 22 19 27 6 8 -20 60
-20 68 1 12 31 -3 54 -35 54 -16 0 -32 -6 -35 -14 -4 -12 -9 -11 -25 5 -18 18
-23 19 -42 6 -19 -12 -25 -12 -45 1 -19 13 -25 13 -46 -1 -21 -14 -26 -14 -36
-2 -7 8 -18 15 -25 15 -7 0 -18 -7 -25 -15 -10 -12 -15 -12 -36 2 -22 14 -26
14 -49 -1 -14 -9 -25 -12 -25 -7 0 17 -33 21 -54 7 -19 -12 -25 -12 -41 0 -24
18 -30 18 -50 -2z"/>
<path d="M839 2324 c-9 -11 -10 -20 -3 -32 15 -23 29 -25 48 -7 12 12 13 21 6
36 -13 23 -33 25 -51 3z"/>
<path d="M927 2333 c-11 -10 -8 -51 3 -58 20 -12 50 6 50 30 0 27 -35 46 -53
28z"/>
<path d="M1004 2326 c-11 -28 1 -51 25 -51 32 0 49 28 32 49 -17 20 -50 21
-57 2z"/>
<path d="M1089 2324 c-9 -11 -10 -20 -2 -32 15 -24 45 -27 60 -6 12 17 14 17
26 0 8 -11 23 -17 38 -14 19 2 24 9 24 33 0 24 -5 31 -24 33 -16 3 -30 -3 -39
-15 -12 -17 -14 -17 -23 0 -12 21 -42 22 -60 1z"/>
<path d="M1934 2326 c-12 -31 0 -51 31 -51 27 0 30 3 30 30 0 25 -4 30 -28 33
-17 2 -29 -2 -33 -12z"/>
<path d="M2019 2324 c-9 -11 -10 -20 -2 -32 15 -24 44 -27 59 -7 28 38 -27 75
-57 39z"/>
<path d="M2104 2326 c-11 -28 1 -51 25 -51 32 0 49 28 32 49 -17 20 -50 21
-57 2z"/>
<path d="M2191 2321 c-15 -27 9 -56 37 -47 39 13 24 66 -18 66 -5 0 -14 -8
-19 -19z"/>
<path d="M2282 2328 c-25 -25 0 -64 32 -52 21 8 21 50 0 58 -20 8 -18 8 -32
-6z"/>
<path d="M511 2316 c-9 -10 -8 -16 4 -26 19 -16 41 1 32 24 -8 20 -21 20 -36
2z"/>
<path d="M590 2310 c0 -24 29 -38 40 -20 12 19 1 40 -21 40 -12 0 -19 -7 -19
-20z"/>
<path d="M674 2315 c-4 -9 -2 -21 4 -27 15 -15 44 -1 40 19 -4 23 -36 29 -44
8z"/>
<path d="M754 2315 c-4 -9 -2 -21 4 -27 16 -16 47 -5 47 17 0 26 -42 34 -51
10z"/>
<path d="M2364 2315 c-8 -19 3 -35 26 -35 19 0 34 25 24 41 -8 14 -44 10 -50
-6z"/>
<path d="M2450 2305 c0 -22 4 -26 23 -23 14 2 22 10 22 23 0 13 -8 21 -22 23
-19 3 -23 -1 -23 -23z"/>
<path d="M2534 2315 c-4 -9 -2 -21 4 -27 15 -15 44 -1 40 19 -4 23 -36 29 -44
8z"/>
<path d="M2623 2314 c-8 -21 13 -42 28 -27 13 13 5 43 -11 43 -6 0 -13 -7 -17
-16z"/>
<path d="M180 2304 c0 -8 5 -12 10 -9 6 4 8 11 5 16 -9 14 -15 11 -15 -7z"/>
<path d="M260 2305 c0 -9 5 -15 11 -13 6 2 11 8 11 13 0 5 -5 11 -11 13 -6 2
-11 -4 -11 -13z"/>
<path d="M340 2305 c0 -8 7 -15 15 -15 8 0 15 7 15 15 0 8 -7 15 -15 15 -8 0
-15 -7 -15 -15z"/>
<path d="M420 2305 c0 -8 9 -15 20 -15 11 0 20 7 20 15 0 8 -9 15 -20 15 -11
0 -20 -7 -20 -15z"/>
<path d="M2710 2305 c0 -8 7 -15 15 -15 8 0 15 7 15 15 0 8 -7 15 -15 15 -8 0
-15 -7 -15 -15z"/>
<path d="M2795 2311 c-7 -12 12 -24 25 -16 11 7 4 25 -10 25 -5 0 -11 -4 -15
-9z"/>
<path d="M2880 2304 c0 -9 5 -14 12 -12 18 6 21 28 4 28 -9 0 -16 -7 -16 -16z"/>
<path d="M2970 2304 c0 -8 5 -12 10 -9 6 3 10 10 10 16 0 5 -4 9 -10 9 -5 0
-10 -7 -10 -16z"/>
<path d="M1477 2255 c-15 -8 -29 -10 -32 -4 -8 13 -52 11 -61 -2 -4 -8 -9 -8
-17 0 -14 14 -60 14 -74 0 -8 -8 -13 -8 -17 0 -9 15 -49 14 -64 -1 -9 -9 -15
-9 -24 0 -16 16 -43 15 -58 -3 -11 -14 -14 -13 -25 1 -8 12 -20 15 -38 10 -21
-5 -27 -12 -27 -35 0 -18 6 -31 16 -35 21 -8 54 2 54 16 0 6 8 4 18 -5 10 -10
27 -17 37 -17 15 0 16 -3 7 -12 -9 -9 -15 -9 -24 0 -17 17 -43 15 -58 -3 -12
-14 -15 -14 -30 0 -21 19 -35 19 -55 -1 -12 -13 -19 -14 -28 -5 -14 14 -54 14
-62 0 -4 -5 -4 -21 -1 -35 7 -26 43 -33 63 -13 8 8 17 7 34 -5 20 -14 26 -14
45 -1 14 9 25 11 29 5 3 -6 -1 -10 -9 -10 -8 0 -21 -7 -30 -15 -9 -9 -17 -11
-21 -5 -8 13 -58 13 -72 -1 -8 -8 -13 -8 -17 0 -11 16 -54 13 -64 -5 -8 -14
-10 -14 -21 0 -18 22 -48 20 -61 -3 -21 -40 25 -78 58 -48 15 13 19 13 30 1 7
-8 22 -14 34 -14 17 0 18 -2 8 -15 -12 -14 -15 -14 -30 0 -22 19 -35 19 -56
-2 -13 -13 -19 -14 -22 -5 -7 21 -60 15 -67 -8 -12 -39 35 -66 63 -38 9 9 15
9 24 0 7 -7 23 -12 35 -12 20 0 22 -2 11 -14 -11 -11 -16 -11 -32 -1 -19 14
-46 10 -58 -9 -4 -6 -12 -5 -22 3 -23 20 -60 10 -64 -17 -6 -43 32 -67 61 -37
13 13 16 13 27 0 10 -12 9 -15 -9 -15 -11 0 -26 -8 -32 -19 -12 -18 -12 -18
-31 1 -26 26 -60 8 -56 -30 4 -32 45 -44 64 -18 10 15 12 15 18 1 3 -8 17 -15
33 -15 19 0 24 -3 17 -10 -7 -7 -19 -8 -36 -1 -19 7 -31 6 -46 -5 -13 -9 -23
-11 -27 -4 -9 15 -51 12 -65 -5 -29 -34 24 -82 58 -52 15 13 19 13 30 1 7 -8
22 -14 33 -14 16 0 17 -2 7 -13 -10 -12 -15 -12 -26 0 -18 17 -37 17 -56 -3
-15 -14 -17 -14 -32 0 -19 20 -29 20 -48 0 -19 -19 -20 -36 -4 -52 17 -17 43
-15 59 4 11 14 13 14 21 0 5 -9 21 -16 35 -16 21 0 23 -2 13 -15 -10 -12 -15
-12 -34 1 -21 13 -25 12 -48 -6 -22 -17 -27 -17 -32 -5 -13 35 -71 6 -64 -32
4 -21 43 -29 63 -13 11 9 18 8 30 -4 19 -19 37 -20 53 -4 9 9 15 9 24 0 9 -9
7 -12 -10 -12 -13 0 -25 -7 -28 -15 -5 -12 -9 -12 -29 1 -26 17 -52 10 -60
-17 -13 -40 38 -66 66 -33 11 14 13 14 21 0 5 -9 20 -16 34 -16 21 0 23 -2 12
-14 -11 -12 -16 -12 -33 0 -25 18 -30 18 -50 -2 -12 -13 -19 -14 -28 -5 -20
20 -56 13 -63 -13 -3 -14 -3 -30 1 -35 8 -14 48 -14 62 0 9 9 16 8 28 -5 20
-20 39 -20 55 -1 11 13 14 13 27 0 8 -8 21 -15 29 -15 8 0 12 -5 8 -11 -4 -8
-9 -8 -17 0 -16 16 -55 13 -65 -5 -8 -14 -10 -14 -21 0 -20 24 -50 19 -63 -9
-20 -44 32 -76 63 -39 11 14 13 14 21 0 5 -9 20 -16 34 -16 21 0 23 -2 12 -14
-11 -11 -16 -11 -36 2 -21 14 -25 13 -46 -7 -20 -19 -24 -20 -29 -7 -8 21 -41
20 -58 0 -9 -11 -10 -20 -2 -32 15 -24 44 -27 60 -7 11 16 13 16 18 2 10 -24
35 -29 61 -12 13 9 24 11 24 5 0 -5 11 -12 24 -16 16 -4 23 -11 19 -20 -4 -11
-8 -11 -20 2 -25 24 -57 14 -61 -20 -5 -42 32 -61 61 -31 13 13 16 13 21 0 3
-8 17 -15 32 -15 22 0 24 -2 14 -15 -11 -13 -14 -13 -27 0 -20 21 -39 19 -56
-5 -12 -18 -15 -18 -20 -5 -4 8 -18 15 -31 15 -30 0 -49 -28 -35 -53 12 -21
55 -22 63 -2 5 13 8 13 25 -4 20 -20 61 -19 61 2 0 5 8 3 18 -6 10 -10 27 -17
37 -17 14 0 16 -3 8 -11 -8 -8 -17 -7 -32 3 -27 17 -56 0 -56 -32 0 -32 29
-49 56 -32 15 10 24 11 32 3 6 -6 22 -11 34 -11 20 0 22 -2 11 -14 -11 -12
-15 -12 -30 1 -19 17 -53 10 -62 -13 -5 -12 -9 -11 -26 6 -16 16 -25 18 -40
10 -11 -6 -20 -19 -20 -28 0 -38 50 -57 68 -26 8 14 10 14 21 0 15 -18 57 -21
66 -5 5 7 14 4 26 -7 16 -14 23 -15 46 -5 18 8 29 9 37 1 7 -7 2 -10 -17 -10
-15 0 -30 -7 -33 -15 -5 -13 -8 -13 -21 1 -9 8 -25 14 -37 12 -27 -4 -30 -56
-3 -72 15 -9 22 -7 36 10 17 21 18 21 29 3 13 -21 42 -25 59 -8 6 6 17 8 23 4
8 -5 2 -12 -19 -21 -17 -7 -31 -18 -31 -25 0 -6 -8 -1 -18 11 -16 20 -21 21
-41 11 -31 -17 -26 -65 8 -69 15 -2 30 3 37 12 10 14 13 15 24 1 14 -17 56
-20 65 -5 4 6 15 4 29 -5 19 -13 25 -13 41 -1 16 12 23 12 43 -2 20 -13 28
-13 44 -3 15 9 23 10 31 2 8 -8 5 -11 -9 -11 -11 0 -25 -5 -32 -12 -8 -8 -15
-8 -26 1 -23 20 -60 10 -64 -17 -7 -45 32 -67 63 -35 16 16 18 16 27 0 11 -21
41 -22 58 -2 11 13 14 13 27 0 8 -8 24 -15 35 -15 17 0 18 -2 8 -15 -11 -14
-15 -14 -32 2 -26 23 -53 6 -53 -33 0 -23 5 -30 24 -32 15 -2 30 3 37 12 10
14 13 15 24 1 15 -18 42 -19 58 -3 9 9 15 9 24 0 15 -15 50 -16 65 -1 8 8 13
8 17 0 9 -15 49 -14 64 1 9 9 15 9 24 0 17 -17 55 -15 66 4 8 15 10 15 15 0 7
-19 48 -21 65 -4 9 9 15 9 24 0 17 -17 55 -15 66 4 8 15 10 15 15 0 8 -21 53
-20 67 2 10 16 10 16 20 0 20 -33 70 -16 70 24 0 9 -9 22 -19 28 -25 13 -27
13 -45 -6 -15 -14 -17 -14 -32 0 -8 9 -23 16 -32 16 -12 0 -13 3 -4 12 9 9 15
9 24 0 16 -16 43 -15 58 3 11 13 14 13 27 0 18 -19 38 -19 55 -1 11 12 16 12
31 -2 14 -12 22 -13 42 -4 14 6 25 16 25 22 0 5 9 1 20 -10 16 -16 25 -18 40
-10 11 6 20 19 20 28 0 38 -50 57 -68 26 -8 -14 -10 -14 -21 0 -17 20 -45 20
-62 0 -11 -14 -13 -14 -21 0 -10 18 -49 21 -65 5 -8 -8 -13 -8 -17 0 -4 6 -1
11 7 11 8 0 20 7 27 15 10 12 15 12 34 0 19 -13 25 -13 44 1 18 12 26 13 37 4
24 -20 60 -8 63 21 4 37 -21 55 -55 40 -18 -8 -29 -9 -37 -1 -7 7 -2 10 15 10
14 0 30 5 36 11 8 8 13 8 17 0 11 -16 54 -13 64 5 8 14 10 14 21 0 17 -21 40
-20 63 1 10 9 18 11 18 6 0 -17 30 -24 51 -13 10 6 19 19 19 28 0 38 -50 57
-68 26 -8 -14 -10 -14 -21 0 -8 9 -24 16 -38 16 -23 0 -24 1 -7 17 13 13 19
14 22 5 5 -17 61 -15 68 3 6 14 8 14 18 -1 19 -26 60 -14 64 18 4 37 -30 56
-55 30 -17 -17 -19 -17 -34 2 -15 18 -20 19 -44 8 -20 -9 -31 -10 -39 -2 -7 7
-2 10 15 10 14 0 30 5 36 11 8 8 13 8 17 0 11 -17 56 -13 63 4 5 14 7 14 24 0
22 -21 55 -12 64 16 13 40 -37 65 -68 34 -13 -13 -16 -13 -21 0 -3 8 -17 15
-32 15 -22 0 -24 2 -14 15 10 12 15 12 34 0 19 -13 25 -13 45 1 17 12 26 13
34 5 28 -28 74 1 62 39 -7 23 -60 29 -67 8 -3 -9 -9 -8 -22 5 -17 16 -16 17 6
17 13 0 29 5 35 11 8 8 17 7 32 -3 27 -17 56 0 56 32 0 32 -29 49 -56 32 -15
-10 -24 -11 -32 -3 -6 6 -22 11 -34 11 -20 0 -22 2 -11 14 11 11 16 11 35 -1
44 -29 85 24 47 61 -19 20 -24 20 -49 2 -17 -12 -22 -12 -33 0 -11 12 -8 14
17 14 16 0 31 6 34 13 3 9 7 9 20 -2 10 -8 27 -11 43 -7 20 5 25 12 22 33 -4
36 -32 52 -59 35 -15 -10 -24 -11 -32 -3 -6 6 -20 11 -31 11 -14 0 -17 3 -9
11 8 8 17 8 32 0 23 -13 61 1 61 21 0 7 6 4 13 -6 8 -11 23 -17 38 -14 19 2
24 9 24 33 0 24 -5 31 -24 33 -15 3 -30 -3 -38 -14 -7 -10 -13 -13 -13 -6 0 6
-12 18 -26 25 -16 8 -22 17 -16 21 6 3 13 2 17 -4 10 -16 55 -12 62 5 5 14 7
14 24 0 26 -25 59 -11 59 25 0 38 -36 52 -60 22 -16 -19 -17 -19 -28 -1 -14
22 -42 25 -60 7 -9 -9 -15 -9 -24 0 -7 7 -21 12 -32 12 -15 0 -17 3 -8 12 8 8
15 8 27 -2 18 -15 65 1 65 22 0 6 6 4 13 -6 8 -11 23 -17 38 -14 19 2 24 9 24
33 0 24 -5 31 -24 33 -15 3 -30 -3 -38 -14 -11 -16 -13 -16 -19 -1 -7 20 -54
23 -72 5 -9 -9 -12 -9 -12 0 0 7 4 12 9 12 5 0 17 7 26 16 12 12 19 13 30 4 8
-6 24 -10 37 -8 18 2 23 9 23 32 0 38 -27 56 -56 38 -15 -10 -24 -11 -32 -3
-6 6 -19 11 -29 11 -11 0 -15 5 -12 15 5 12 9 12 29 -1 31 -20 68 -3 63 28 -4
31 -33 46 -58 30 -17 -10 -24 -10 -43 3 -20 13 -25 13 -44 0 -14 -10 -24 -12
-28 -5 -3 5 0 10 8 10 8 0 20 7 27 15 9 11 16 13 24 5 15 -15 52 -12 67 6 11
14 13 14 21 0 18 -31 68 -12 68 26 0 9 -9 22 -19 28 -21 11 -51 4 -51 -13 0
-5 -8 -3 -18 6 -22 20 -43 22 -59 6 -6 -6 -17 -8 -23 -4 -8 5 -4 11 12 19 33
16 33 70 0 74 -13 2 -28 -1 -35 -6 -8 -7 -18 -6 -30 3 -10 7 -28 11 -40 8 -22
-5 -22 -5 -2 10 14 10 24 12 32 5 21 -17 58 -5 61 20 6 43 -32 67 -61 37 -13
-13 -16 -13 -27 0 -15 18 -42 19 -58 3 -9 -9 -15 -9 -24 0 -9 9 -7 12 10 12
13 0 25 7 28 15 5 12 9 12 29 -1 42 -28 88 19 53 54 -17 17 -43 15 -59 -4 -11
-14 -13 -14 -21 0 -10 18 -49 21 -65 5 -8 -8 -13 -8 -17 0 -4 6 -21 11 -39 11
-29 0 -30 1 -12 14 16 12 22 12 41 -1 20 -13 25 -12 43 6 18 18 21 18 29 5 11
-20 51 -15 65 8 8 12 7 21 -2 32 -17 20 -60 21 -68 1 -5 -13 -8 -13 -20 5 -17
24 -36 26 -56 5 -13 -13 -16 -13 -27 0 -15 18 -42 19 -58 3 -9 -9 -15 -9 -24
0 -7 7 -23 12 -35 12 -20 0 -22 2 -11 14 11 12 15 12 29 0 21 -19 46 -18 57 3
9 15 11 15 27 -1 21 -20 44 -18 59 7 24 37 -35 77 -61 41 -13 -18 -15 -18 -24
-1 -12 21 -42 22 -63 1 -9 -8 -16 -11 -16 -5 0 17 -49 25 -66 11 -11 -10 -18
-10 -26 -2 -15 15 -51 15 -65 1 -8 -8 -13 -8 -17 0 -4 6 -17 11 -30 11 -12 0
-27 -5 -33 -11 -8 -8 -13 -8 -17 0 -9 14 -63 14 -71 1 -4 -7 -14 -5 -26 4 -21
14 -59 11 -59 -5 0 -5 -10 -3 -23 5 -20 13 -26 14 -50 1z m-647 -485 c0 -5 -4
-10 -10 -10 -5 0 -10 5 -10 10 0 6 5 10 10 10 6 0 10 -4 10 -10z m-80 -274 c0
-11 -19 -15 -25 -6 -3 5 1 10 9 10 9 0 16 -2 16 -4z m40 -326 c0 -5 -7 -10
-16 -10 -8 0 -12 5 -9 10 3 6 10 10 16 10 5 0 9 -4 9 -10z"/>
<path d="M882 2248 c-30 -30 3 -77 40 -57 30 16 16 69 -17 69 -6 0 -16 -5 -23
-12z"/>
<path d="M960 2241 c-13 -25 -4 -48 21 -56 38 -12 65 35 37 63 -18 18 -46 14
-58 -7z"/>
<path d="M2152 2248 c-30 -30 3 -77 40 -57 30 16 16 69 -17 69 -6 0 -16 -5
-23 -12z"/>
<path d="M550 2240 c-12 -7 -12 -13 -4 -27 16 -26 39 -22 39 6 0 27 -13 35
-35 21z"/>
<path d="M630 2235 c-11 -13 -11 -19 3 -32 21 -21 49 -9 45 19 -4 28 -30 35
-48 13z"/>
<path d="M714 2236 c-10 -26 4 -48 28 -44 17 2 23 10 23 28 0 18 -6 26 -23 28
-13 2 -25 -3 -28 -12z"/>
<path d="M794 2235 c-10 -25 4 -45 30 -45 13 0 26 7 30 15 9 25 -5 45 -30 45
-14 0 -27 -7 -30 -15z"/>
<path d="M2234 2236 c-10 -26 4 -48 28 -44 17 2 23 10 23 28 0 18 -6 26 -23
28 -13 2 -25 -3 -28 -12z"/>
<path d="M2316 2235 c-9 -24 4 -45 29 -45 13 0 25 7 29 15 9 24 -4 45 -29 45
-13 0 -25 -7 -29 -15z"/>
<path d="M2404 2235 c-8 -21 2 -45 19 -45 20 0 40 27 33 45 -7 19 -45 20 -52
0z"/>
<path d="M2497 2244 c-10 -10 -9 -42 2 -48 18 -11 42 6 39 28 -3 21 -28 33
-41 20z"/>
<path d="M215 2229 c-10 -15 1 -23 20 -15 9 3 13 10 10 16 -8 13 -22 13 -30
-1z"/>
<path d="M300 2220 c0 -11 7 -20 15 -20 8 0 15 9 15 20 0 11 -7 20 -15 20 -8
0 -15 -9 -15 -20z"/>
<path d="M380 2219 c0 -25 33 -22 38 4 2 12 -3 17 -17 17 -15 0 -21 -6 -21
-21z"/>
<path d="M460 2220 c0 -16 5 -21 23 -18 12 2 22 10 22 18 0 8 -10 16 -22 18
-18 3 -23 -2 -23 -18z"/>
<path d="M2575 2230 c-9 -15 4 -30 26 -30 12 0 19 7 19 20 0 21 -33 29 -45 10z"/>
<path d="M2665 2230 c-8 -14 3 -30 21 -30 8 0 14 9 14 20 0 21 -24 28 -35 10z"/>
<path d="M2754 2229 c-10 -17 13 -36 27 -22 12 12 4 33 -11 33 -5 0 -12 -5
-16 -11z"/>
<path d="M2845 2230 c-4 -6 -3 -16 3 -22 6 -6 12 -6 17 2 4 6 3 16 -3 22 -6 6
-12 6 -17 -2z"/>
<path d="M50 2220 c0 -5 5 -10 10 -10 6 0 10 5 10 10 0 6 -4 10 -10 10 -5 0
-10 -4 -10 -10z"/>
<path d="M130 2220 c0 -5 7 -10 15 -10 8 0 15 5 15 10 0 6 -7 10 -15 10 -8 0
-15 -4 -15 -10z"/>
<path d="M2920 2220 c0 -5 7 -10 15 -10 8 0 15 5 15 10 0 6 -7 10 -15 10 -8 0
-15 -4 -15 -10z"/>
<path d="M595 2157 c-23 -17 -14 -47 15 -47 26 0 37 27 18 46 -12 12 -17 12
-33 1z"/>
<path d="M672 2158 c-30 -30 9 -69 44 -43 15 11 17 17 8 32 -14 23 -36 27 -52
11z"/>
<path d="M754 2156 c-11 -29 0 -51 26 -51 21 0 25 5 25 30 0 24 -5 31 -23 33
-13 2 -24 -3 -28 -12z"/>
<path d="M834 2156 c-11 -28 1 -51 25 -51 28 0 47 25 38 49 -8 20 -56 21 -63
2z"/>
<path d="M2274 2156 c-10 -26 1 -51 22 -54 27 -4 47 21 39 48 -7 24 -53 28
-61 6z"/>
<path d="M2361 2156 c-15 -18 -8 -44 14 -52 21 -9 47 15 43 40 -4 26 -40 33
-57 12z"/>
<path d="M2452 2158 c-16 -16 -15 -33 2 -47 22 -18 48 -2 44 28 -3 28 -27 38
-46 19z"/>
<path d="M2541 2160 c-18 -11 -9 -44 13 -48 10 -2 22 2 26 9 16 25 -14 55 -39
39z"/>
<path d="M343 2144 c-9 -23 11 -38 26 -20 13 16 7 36 -10 36 -5 0 -12 -7 -16
-16z"/>
<path d="M423 2144 c-3 -8 -1 -20 5 -26 15 -15 43 8 35 28 -7 19 -32 18 -40
-2z"/>
<path d="M504 2145 c-4 -9 -2 -21 4 -27 15 -15 44 -1 40 19 -4 23 -36 29 -44
8z"/>
<path d="M2617 2147 c-8 -21 8 -39 29 -35 27 5 25 42 -2 46 -12 2 -24 -3 -27
-11z"/>
<path d="M2704 2145 c-4 -9 -2 -21 4 -27 15 -15 44 -1 40 19 -4 23 -36 29 -44
8z"/>
<path d="M2797 2154 c-14 -15 -6 -34 14 -34 14 0 19 5 17 17 -3 18 -20 27 -31
17z"/>
<path d="M10 2134 c0 -8 5 -12 10 -9 6 3 10 10 10 16 0 5 -4 9 -10 9 -5 0 -10
-7 -10 -16z"/>
<path d="M95 2141 c-3 -5 -1 -12 5 -16 5 -3 10 1 10 9 0 18 -6 21 -15 7z"/>
<path d="M177 2144 c-8 -8 1 -24 14 -24 5 0 9 7 9 15 0 15 -12 20 -23 9z"/>
<path d="M257 2144 c-9 -10 2 -24 19 -24 8 0 14 7 14 15 0 15 -21 21 -33 9z"/>
<path d="M2880 2135 c0 -8 7 -15 15 -15 8 0 15 7 15 15 0 8 -7 15 -15 15 -8 0
-15 -7 -15 -15z"/>
<path d="M2970 2135 c0 -8 5 -15 10 -15 6 0 10 7 10 15 0 8 -4 15 -10 15 -5 0
-10 -7 -10 -15z"/>
<path d="M712 2078 c-30 -30 3 -77 40 -57 22 12 24 55 2 63 -22 8 -28 8 -42
-6z"/>
<path d="M2322 2078 c-30 -30 3 -77 40 -57 30 16 16 69 -17 69 -6 0 -16 -5
-23 -12z"/>
<path d="M381 2066 c-16 -19 -6 -36 20 -36 15 0 20 6 17 22 -4 27 -21 33 -37
14z"/>
<path d="M467 2074 c-10 -10 -9 -42 2 -48 18 -11 42 6 39 28 -3 21 -28 33 -41
20z"/>
<path d="M544 2065 c-9 -23 3 -45 25 -45 20 0 37 32 26 50 -9 15 -45 12 -51
-5z"/>
<path d="M624 2065 c-9 -23 3 -45 24 -45 25 0 44 23 36 44 -8 20 -53 21 -60 1z"/>
<path d="M2404 2066 c-10 -26 4 -48 28 -44 17 2 23 10 23 28 0 18 -6 26 -23
28 -13 2 -25 -3 -28 -12z"/>
<path d="M2486 2064 c-9 -22 17 -49 39 -40 10 3 15 15 13 28 -4 29 -42 37 -52
12z"/>
<path d="M2573 2064 c-3 -8 2 -23 11 -32 15 -15 17 -15 33 0 13 14 14 20 3 32
-16 20 -39 20 -47 0z"/>
<path d="M2667 2073 c-15 -14 -7 -43 12 -43 26 0 36 17 21 35 -14 16 -23 19
-33 8z"/>
<path d="M135 2060 c-4 -6 -3 -16 3 -22 6 -6 12 -6 17 2 4 6 3 16 -3 22 -6 6
-12 6 -17 -2z"/>
<path d="M214 2059 c-10 -17 13 -36 27 -22 12 12 4 33 -11 33 -5 0 -12 -5 -16
-11z"/>
<path d="M295 2060 c-4 -7 -3 -16 3 -22 14 -14 45 -2 40 15 -6 16 -34 21 -43
7z"/>
<path d="M2750 2049 c0 -25 33 -22 38 4 2 12 -3 17 -17 17 -15 0 -21 -6 -21
-21z"/>
<path d="M2834 2059 c-8 -14 11 -33 25 -25 16 10 13 36 -3 36 -8 0 -18 -5 -22
-11z"/>
<path d="M2925 2060 c-8 -13 4 -32 16 -25 12 8 12 35 0 35 -6 0 -13 -4 -16
-10z"/>
<path d="M50 2050 c0 -5 5 -10 10 -10 6 0 10 5 10 10 0 6 -4 10 -10 10 -5 0
-10 -4 -10 -10z"/>
<path d="M513 1993 c-7 -2 -13 -16 -13 -29 0 -19 5 -24 24 -24 30 0 40 24 20
45 -9 8 -16 15 -17 14 -1 0 -8 -3 -14 -6z"/>
<path d="M587 1994 c-23 -23 7 -69 37 -58 25 10 17 58 -9 62 -12 2 -24 0 -28
-4z"/>
<path d="M663 1984 c-8 -22 10 -49 32 -49 10 0 22 7 28 16 15 24 1 49 -28 49
-15 0 -28 -7 -32 -16z"/>
<path d="M2353 1984 c-8 -21 9 -48 32 -53 26 -5 47 26 34 50 -12 23 -57 25
-66 3z"/>
<path d="M2447 1994 c-15 -16 -7 -53 14 -59 30 -10 58 19 43 43 -12 18 -45 28
-57 16z"/>
<path d="M2531 1987 c-25 -31 13 -66 46 -42 14 11 16 18 7 32 -14 23 -38 28
-53 10z"/>
<path d="M2620 1985 c-17 -20 -5 -45 20 -45 11 0 23 7 26 15 6 15 -11 45 -26
45 -4 0 -13 -7 -20 -15z"/>
<path d="M257 1984 c-14 -15 -6 -34 14 -34 14 0 19 5 17 17 -3 18 -20 27 -31
17z"/>
<path d="M334 1979 c-10 -17 23 -46 37 -32 7 7 9 19 6 27 -7 18 -33 21 -43 5z"/>
<path d="M417 1977 c-8 -21 8 -39 29 -35 27 5 25 42 -2 46 -12 2 -24 -3 -27
-11z"/>
<path d="M2703 1974 c-3 -8 -1 -20 5 -26 16 -16 42 -2 42 22 0 24 -38 28 -47
4z"/>
<path d="M2793 1974 c-7 -18 11 -39 26 -30 17 11 13 46 -4 46 -9 0 -18 -7 -22
-16z"/>
<path d="M2880 1975 c-10 -12 -9 -16 5 -21 23 -9 40 10 22 25 -11 9 -17 8 -27
-4z"/>
<path d="M7 1974 c-8 -8 1 -24 14 -24 5 0 9 7 9 15 0 15 -12 20 -23 9z"/>
<path d="M90 1965 c0 -9 5 -15 11 -13 6 2 11 8 11 13 0 5 -5 11 -11 13 -6 2
-11 -4 -11 -13z"/>
<path d="M170 1965 c0 -8 7 -15 15 -15 8 0 15 7 15 15 0 8 -7 15 -15 15 -8 0
-15 -7 -15 -15z"/>
<path d="M2963 1968 c2 -7 10 -13 17 -13 7 0 15 6 18 13 2 7 -5 12 -18 12 -13
0 -20 -5 -17 -12z"/>
<path d="M545 1904 c-18 -18 -16 -33 7 -47 35 -22 66 21 36 51 -16 16 -23 15
-43 -4z"/>
<path d="M633 1913 c-19 -7 -16 -51 4 -62 37 -20 71 27 41 57 -13 13 -24 14
-45 5z"/>
<path d="M2402 1908 c-16 -16 -15 -33 3 -51 17 -18 51 -12 59 10 15 37 -34 69
-62 41z"/>
<path d="M2490 1905 c-19 -23 -8 -50 22 -53 34 -4 50 34 22 55 -23 17 -29 16
-44 -2z"/>
<path d="M294 1895 c-7 -18 3 -35 22 -35 20 0 30 30 13 41 -20 12 -29 11 -35
-6z"/>
<path d="M373 1894 c-3 -8 2 -23 11 -32 14 -15 18 -15 31 -1 9 9 13 23 9 32
-8 21 -43 22 -51 1z"/>
<path d="M453 1894 c-3 -8 1 -23 10 -31 21 -21 47 -9 47 22 0 20 -5 25 -25 25
-14 0 -28 -7 -32 -16z"/>
<path d="M2574 1896 c-10 -26 4 -48 28 -44 17 2 23 10 23 28 0 18 -6 26 -23
28 -13 2 -25 -3 -28 -12z"/>
<path d="M2667 1904 c-10 -10 -9 -42 2 -48 18 -11 42 6 39 28 -3 21 -28 33
-41 20z"/>
<path d="M2751 1896 c-16 -19 -6 -36 20 -36 15 0 20 6 17 22 -4 27 -21 33 -37
14z"/>
<path d="M50 1885 c0 -9 5 -15 11 -13 14 5 14 21 0 26 -6 2 -11 -4 -11 -13z"/>
<path d="M132 1884 c4 -21 22 -23 26 -1 2 10 -3 17 -13 17 -10 0 -15 -6 -13
-16z"/>
<path d="M212 1883 c2 -10 10 -18 18 -18 8 0 16 8 18 18 2 12 -3 17 -18 17
-15 0 -20 -5 -18 -17z"/>
<path d="M2835 1890 c-8 -14 3 -30 21 -30 8 0 14 9 14 20 0 21 -24 28 -35 10z"/>
<path d="M2920 1886 c0 -21 21 -31 30 -15 5 7 6 17 4 21 -9 14 -34 9 -34 -6z"/>
<path d="M420 1815 c-17 -20 -5 -45 20 -45 11 0 23 7 26 15 6 15 -11 45 -26
45 -4 0 -13 -7 -20 -15z"/>
<path d="M501 1816 c-17 -20 -2 -46 25 -46 29 0 41 24 24 45 -16 19 -34 19
-49 1z"/>
<path d="M580 1811 c-11 -22 9 -51 35 -51 22 0 39 38 24 56 -16 20 -46 17 -59
-5z"/>
<path d="M2525 1809 c-10 -30 18 -58 43 -43 9 6 17 22 17 35 0 34 -50 41 -60
8z"/>
<path d="M2617 1824 c-13 -14 -7 -43 12 -53 23 -13 45 8 39 36 -3 18 -38 30
-51 17z"/>
<path d="M2712 1821 c-20 -12 -10 -46 13 -46 14 0 20 7 20 24 0 27 -13 35 -33
22z"/>
<path d="M177 1814 c-14 -14 -7 -35 11 -32 9 2 17 10 17 17 0 16 -18 25 -28
15z"/>
<path d="M253 1804 c-6 -16 15 -37 29 -28 4 3 8 14 8 25 0 23 -28 26 -37 3z"/>
<path d="M333 1804 c-3 -8 -1 -20 5 -26 16 -16 42 -2 42 22 0 24 -38 28 -47 4z"/>
<path d="M2787 1806 c-3 -8 1 -20 9 -27 12 -10 18 -9 31 3 8 9 12 21 9 27 -10
16 -43 14 -49 -3z"/>
<path d="M2874 1809 c-3 -6 0 -17 8 -25 13 -13 16 -13 27 0 7 8 10 20 6 26 -8
13 -32 13 -41 -1z"/>
<path d="M2967 1814 c-14 -15 -6 -34 14 -34 14 0 19 5 17 17 -3 18 -20 27 -31
17z"/>
<path d="M2 1798 c6 -18 28 -21 28 -4 0 9 -7 16 -16 16 -9 0 -14 -5 -12 -12z"/>
<path d="M90 1794 c0 -9 5 -14 12 -12 18 6 21 28 4 28 -9 0 -16 -7 -16 -16z"/>
<path d="M465 1736 c-22 -16 -15 -50 11 -54 25 -4 47 19 38 41 -8 22 -29 28
-49 13z"/>
<path d="M541 1736 c-21 -25 -4 -58 27 -54 23 2 27 8 27 33 0 23 -5 31 -21 33
-11 2 -26 -4 -33 -12z"/>
<path d="M2492 1741 c-8 -4 -12 -19 -10 -32 2 -19 9 -24 33 -24 33 0 45 25 25
50 -14 17 -29 19 -48 6z"/>
<path d="M2582 1741 c-8 -4 -12 -19 -10 -32 2 -18 9 -24 28 -24 28 0 39 27 20
50 -14 17 -20 18 -38 6z"/>
<path d="M217 1734 c-16 -16 -7 -44 14 -44 15 0 20 5 17 22 -3 22 -19 33 -31
22z"/>
<path d="M297 1734 c-4 -4 -7 -16 -7 -26 0 -13 7 -18 26 -18 21 0 25 4 22 22
-3 23 -27 35 -41 22z"/>
<path d="M377 1733 c-13 -12 -7 -41 10 -47 21 -8 48 17 40 38 -6 16 -38 22
-50 9z"/>
<path d="M2656 1724 c-9 -22 17 -49 39 -40 10 3 15 15 13 28 -4 29 -42 37 -52
12z"/>
<path d="M2744 1726 c-8 -21 3 -36 27 -36 15 0 20 6 17 22 -4 27 -35 37 -44
14z"/>
<path d="M2834 1725 c-7 -18 3 -35 21 -35 21 0 28 19 15 35 -16 19 -29 19 -36
0z"/>
<path d="M45 1720 c-3 -6 1 -13 10 -16 19 -8 30 0 20 15 -8 14 -22 14 -30 1z"/>
<path d="M127 1724 c-9 -9 4 -34 18 -34 14 0 27 25 18 34 -4 3 -12 6 -18 6 -6
0 -14 -3 -18 -6z"/>
<path d="M2922 1713 c4 -21 33 -25 33 -3 0 8 -8 16 -18 18 -14 3 -18 -1 -15
-15z"/>
<path d="M2537 1659 c-37 -21 -8 -77 33 -64 13 4 20 15 20 30 0 29 -28 47 -53
34z"/>
<path d="M341 1650 c-19 -11 -9 -45 14 -45 13 0 21 8 23 21 3 23 -17 37 -37
24z"/>
<path d="M422 1651 c-23 -14 -10 -46 18 -46 20 0 25 5 25 25 0 26 -20 36 -43
21z"/>
<path d="M494 1638 c-7 -22 19 -52 40 -45 17 6 29 34 23 51 -10 24 -54 21 -63
-6z"/>
<path d="M2617 1653 c-12 -11 -8 -40 7 -52 28 -23 68 17 45 45 -12 15 -41 19
-52 7z"/>
<path d="M2704 1645 c-9 -23 3 -45 25 -45 23 0 35 28 20 46 -15 18 -38 18 -45
-1z"/>
<path d="M2791 1646 c-15 -18 -3 -46 20 -46 25 0 35 26 19 45 -15 19 -24 19
-39 1z"/>
<path d="M5 1640 c-10 -17 12 -37 25 -24 8 8 6 15 -4 23 -10 9 -16 9 -21 1z"/>
<path d="M91 1636 c-9 -10 -9 -16 -1 -21 17 -10 37 12 24 25 -8 8 -15 6 -23
-4z"/>
<path d="M170 1630 c0 -15 5 -20 18 -18 9 2 17 10 17 18 0 8 -8 16 -17 18 -13
2 -18 -3 -18 -18z"/>
<path d="M250 1631 c0 -27 19 -36 37 -18 18 18 9 37 -18 37 -12 0 -19 -7 -19
-19z"/>
<path d="M2874 1635 c-8 -19 12 -36 33 -28 19 7 12 37 -10 41 -9 2 -20 -4 -23
-13z"/>
<path d="M2967 1644 c-14 -15 -6 -34 14 -34 14 0 19 5 17 17 -3 18 -20 27 -31
17z"/>
<path d="M460 1565 c-18 -22 -8 -50 19 -50 32 0 49 28 32 49 -17 20 -35 20
-51 1z"/>
<path d="M2570 1559 c-9 -15 -8 -24 1 -35 18 -22 53 -13 57 15 6 40 -39 56
-58 20z"/>
<path d="M130 1556 c-13 -17 -6 -36 15 -36 19 0 26 27 11 39 -10 8 -17 7 -26
-3z"/>
<path d="M217 1564 c-16 -16 -7 -44 14 -44 15 0 20 5 17 22 -3 22 -19 33 -31
22z"/>
<path d="M297 1564 c-4 -4 -7 -16 -7 -26 0 -13 7 -18 26 -18 21 0 25 4 22 22
-3 23 -27 35 -41 22z"/>
<path d="M377 1563 c-13 -12 -7 -41 10 -47 21 -8 48 17 40 38 -6 16 -38 22
-50 9z"/>
<path d="M2653 1554 c-8 -20 21 -49 41 -41 9 4 16 18 16 32 0 20 -5 25 -25 25
-14 0 -28 -7 -32 -16z"/>
<path d="M2744 1555 c-8 -19 3 -35 26 -35 19 0 30 17 23 38 -6 17 -42 15 -49
-3z"/>
<path d="M2834 1555 c-4 -9 -2 -21 4 -27 15 -15 44 -1 40 19 -4 23 -36 29 -44
8z"/>
<path d="M47 1554 c-13 -13 -7 -24 14 -24 11 0 19 5 17 12 -5 14 -22 21 -31
12z"/>
<path d="M2922 1543 c2 -10 10 -18 18 -18 8 0 16 8 18 18 2 12 -3 17 -18 17
-15 0 -20 -5 -18 -17z"/>
<path d="M334 1476 c-9 -24 4 -48 23 -44 12 2 18 12 18 28 0 29 -32 41 -41 16z"/>
<path d="M414 1476 c-10 -26 4 -48 28 -44 17 2 23 10 23 28 0 18 -6 26 -23 28
-13 2 -25 -3 -28 -12z"/>
<path d="M497 1484 c-13 -14 -7 -43 12 -53 24 -13 55 8 50 35 -4 19 -48 32
-62 18z"/>
<path d="M2617 1483 c-12 -11 -8 -40 7 -52 28 -23 68 17 45 45 -12 15 -41 19
-52 7z"/>
<path d="M2701 1476 c-16 -20 -3 -46 24 -46 13 0 26 7 29 16 7 19 -10 44 -29
44 -7 0 -18 -6 -24 -14z"/>
<path d="M2791 1476 c-15 -18 -3 -46 20 -46 25 0 35 26 19 45 -15 19 -24 19
-39 1z"/>
<path d="M4 1469 c-10 -17 13 -36 27 -22 12 12 4 33 -11 33 -5 0 -12 -5 -16
-11z"/>
<path d="M86 1465 c-3 -9 1 -18 10 -22 19 -7 28 2 21 22 -8 19 -23 19 -31 0z"/>
<path d="M170 1460 c0 -15 5 -20 18 -18 9 2 17 10 17 18 0 8 -8 16 -17 18 -13
2 -18 -3 -18 -18z"/>
<path d="M250 1461 c0 -27 19 -36 37 -18 18 18 9 37 -18 37 -12 0 -19 -7 -19
-19z"/>
<path d="M2874 1465 c-8 -19 12 -36 33 -28 19 7 12 37 -10 41 -9 2 -20 -4 -23
-13z"/>
<path d="M2967 1474 c-14 -15 -6 -34 14 -34 14 0 19 5 17 17 -3 18 -20 27 -31
17z"/>
<path d="M383 1403 c-19 -7 -16 -50 4 -57 24 -10 51 20 37 41 -12 19 -23 24
-41 16z"/>
<path d="M462 1401 c-8 -4 -12 -19 -10 -32 4 -29 45 -34 61 -7 19 30 -19 60
-51 39z"/>
<path d="M2570 1390 c-14 -27 4 -52 34 -48 31 4 30 62 -1 66 -14 2 -26 -4 -33
-18z"/>
<path d="M2664 1396 c-10 -8 -15 -20 -11 -30 10 -25 38 -32 53 -12 24 33 -9
66 -42 42z"/>
<path d="M133 1389 c-14 -14 -6 -39 12 -39 18 0 26 27 11 39 -9 7 -16 7 -23 0z"/>
<path d="M213 1389 c-16 -16 -5 -39 19 -39 14 0 19 6 16 22 -4 25 -19 33 -35
17z"/>
<path d="M290 1376 c0 -21 5 -26 26 -26 21 0 25 4 22 23 -2 14 -11 23 -25 25
-19 3 -23 -1 -23 -22z"/>
<path d="M2744 1385 c-8 -19 3 -35 26 -35 19 0 30 17 23 38 -6 17 -42 15 -49
-3z"/>
<path d="M2834 1385 c-4 -9 -2 -21 4 -27 15 -15 44 -1 40 19 -4 23 -36 29 -44
8z"/>
<path d="M2923 1384 c-7 -19 11 -39 26 -30 16 10 13 33 -4 40 -9 3 -18 -1 -22
-10z"/>
<path d="M47 1383 c-13 -12 -7 -23 13 -23 11 0 20 7 20 15 0 15 -21 21 -33 8z"/>
<path d="M2532 1318 c-28 -28 -1 -75 38 -63 14 4 20 15 20 35 0 36 -33 53 -58
28z"/>
<path d="M334 1306 c-9 -24 4 -48 23 -44 12 2 18 12 18 28 0 29 -32 41 -41 16z"/>
<path d="M414 1306 c-10 -26 4 -48 28 -44 17 2 23 10 23 28 0 18 -6 26 -23 28
-13 2 -25 -3 -28 -12z"/>
<path d="M494 1306 c-11 -28 4 -48 33 -44 22 2 28 8 28 28 0 20 -6 26 -28 28
-18 2 -29 -2 -33 -12z"/>
<path d="M2614 1305 c-10 -25 4 -45 30 -45 13 0 26 7 30 15 9 25 -5 45 -30 45
-14 0 -27 -7 -30 -15z"/>
<path d="M2700 1305 c-15 -18 2 -45 30 -45 23 0 34 28 19 46 -15 18 -33 18
-49 -1z"/>
<path d="M2790 1304 c-11 -12 -10 -18 3 -32 16 -15 18 -15 34 0 13 14 14 20 3
32 -7 9 -16 16 -20 16 -4 0 -13 -7 -20 -16z"/>
<path d="M4 1299 c-10 -17 13 -36 27 -22 12 12 4 33 -11 33 -5 0 -12 -5 -16
-11z"/>
<path d="M87 1295 c-8 -18 11 -31 25 -17 11 11 3 32 -12 32 -4 0 -10 -7 -13
-15z"/>
<path d="M170 1290 c0 -15 5 -20 18 -18 9 2 17 10 17 18 0 8 -8 16 -17 18 -13
2 -18 -3 -18 -18z"/>
<path d="M250 1291 c0 -24 25 -34 40 -16 15 18 5 35 -21 35 -12 0 -19 -7 -19
-19z"/>
<path d="M2874 1295 c-8 -19 12 -36 33 -28 19 7 12 37 -10 41 -9 2 -20 -4 -23
-13z"/>
<path d="M2960 1290 c0 -13 7 -20 20 -20 13 0 20 7 20 20 0 13 -7 20 -20 20
-13 0 -20 -7 -20 -20z"/>
<path d="M383 1233 c-19 -7 -16 -50 4 -57 24 -10 51 20 37 41 -12 19 -23 24
-41 16z"/>
<path d="M460 1226 c-27 -33 18 -72 48 -42 13 13 14 20 6 34 -15 23 -38 26
-54 8z"/>
<path d="M2484 1226 c-12 -31 0 -51 31 -51 27 0 30 3 30 30 0 25 -4 30 -28 33
-17 2 -29 -2 -33 -12z"/>
<path d="M2571 1222 c-13 -25 8 -56 35 -50 29 5 27 62 -3 66 -13 2 -26 -4 -32
-16z"/>
<path d="M2667 1228 c-22 -12 -22 -35 1 -46 25 -13 42 -4 42 23 0 27 -19 37
-43 23z"/>
<path d="M131 1216 c-9 -10 -8 -16 3 -25 10 -9 16 -8 25 3 9 10 8 16 -3 25
-10 9 -16 8 -25 -3z"/>
<path d="M213 1214 c-8 -21 13 -42 28 -27 13 13 5 43 -11 43 -6 0 -13 -7 -17
-16z"/>
<path d="M290 1205 c0 -22 4 -26 23 -23 14 2 22 10 22 23 0 13 -8 21 -22 23
-19 3 -23 -1 -23 -23z"/>
<path d="M2744 1215 c-8 -19 3 -35 26 -35 19 0 30 17 23 38 -6 17 -42 15 -49
-3z"/>
<path d="M2834 1215 c-4 -9 -2 -21 4 -27 15 -15 44 -1 40 19 -4 23 -36 29 -44
8z"/>
<path d="M2924 1215 c-3 -8 -3 -19 0 -24 9 -13 36 -2 36 14 0 19 -30 27 -36
10z"/>
<path d="M45 1211 c-3 -5 -1 -12 5 -16 12 -7 30 2 30 16 0 12 -27 12 -35 0z"/>
<path d="M586 1144 c-9 -8 -16 -19 -16 -24 0 -11 29 -40 40 -40 11 0 40 29 40
40 0 11 -29 40 -40 40 -5 0 -16 -7 -24 -16z"/>
<path d="M2532 1148 c-30 -30 11 -85 44 -57 25 21 11 69 -21 69 -6 0 -16 -5
-23 -12z"/>
<path d="M337 1144 c-13 -13 -7 -42 10 -48 21 -8 36 6 31 30 -3 19 -29 30 -41
18z"/>
<path d="M414 1136 c-10 -26 4 -48 28 -44 17 2 23 10 23 28 0 18 -6 26 -23 28
-13 2 -25 -3 -28 -12z"/>
<path d="M497 1136 c-11 -28 4 -47 32 -44 20 2 26 8 26 28 0 20 -6 26 -26 28
-17 2 -29 -3 -32 -12z"/>
<path d="M2614 1136 c-10 -26 4 -48 28 -44 17 2 23 10 23 28 0 18 -6 26 -23
28 -13 2 -25 -3 -28 -12z"/>
<path d="M2704 1135 c-8 -21 2 -45 19 -45 8 0 20 7 27 15 10 12 10 18 0 30 -7
8 -19 15 -27 15 -7 0 -16 -7 -19 -15z"/>
<path d="M2790 1134 c-11 -12 -10 -18 3 -32 16 -15 18 -15 34 0 13 14 14 20 3
32 -7 9 -16 16 -20 16 -4 0 -13 -7 -20 -16z"/>
<path d="M5 1130 c-7 -12 2 -30 16 -30 5 0 9 9 9 20 0 21 -15 27 -25 10z"/>
<path d="M92 1126 c1 -10 8 -17 13 -17 15 1 12 24 -3 29 -9 3 -13 -2 -10 -12z"/>
<path d="M170 1120 c0 -15 5 -20 18 -18 9 2 17 10 17 18 0 8 -8 16 -17 18 -13
2 -18 -3 -18 -18z"/>
<path d="M250 1120 c0 -23 35 -28 43 -6 7 18 -1 26 -25 26 -11 0 -18 -7 -18
-20z"/>
<path d="M2875 1130 c-4 -7 -3 -16 3 -22 14 -14 45 -2 40 15 -6 16 -34 21 -43
7z"/>
<path d="M2962 1123 c2 -10 10 -18 18 -18 22 0 18 29 -3 33 -14 3 -18 -1 -15
-15z"/>
<path d="M459 1054 c-9 -11 -10 -20 -3 -32 15 -23 29 -25 48 -7 12 12 13 21 6
36 -13 23 -33 25 -51 3z"/>
<path d="M540 1055 c-18 -22 -1 -50 31 -50 20 0 24 5 24 30 0 23 -5 31 -21 33
-11 2 -27 -4 -34 -13z"/>
<path d="M2483 1054 c-15 -39 38 -67 60 -32 8 12 7 21 -2 32 -17 21 -50 20
-58 0z"/>
<path d="M2577 1063 c-13 -13 -7 -51 9 -57 20 -8 44 11 44 34 0 23 -37 39 -53
23z"/>
<path d="M136 1053 c-12 -12 -6 -33 9 -33 8 0 15 6 15 14 0 17 -14 28 -24 19z"/>
<path d="M213 1044 c-8 -21 13 -42 28 -27 13 13 5 43 -11 43 -6 0 -13 -7 -17
-16z"/>
<path d="M294 1045 c-4 -9 -2 -21 4 -27 15 -15 44 -1 40 19 -4 23 -36 29 -44
8z"/>
<path d="M374 1045 c-4 -9 -2 -21 4 -27 16 -16 47 -5 47 17 0 26 -42 34 -51
10z"/>
<path d="M2657 1047 c-8 -21 8 -39 29 -35 11 2 20 13 22 26 3 18 -1 22 -21 22
-14 0 -27 -6 -30 -13z"/>
<path d="M2743 1044 c-3 -8 -1 -20 5 -26 16 -16 42 -2 42 22 0 24 -38 28 -47
4z"/>
<path d="M2833 1044 c-3 -8 -1 -20 5 -26 15 -15 43 8 35 28 -7 19 -32 18 -40
-2z"/>
<path d="M45 1041 c-7 -12 12 -24 25 -16 11 7 4 25 -10 25 -5 0 -11 -4 -15 -9z"/>
<path d="M2920 1035 c0 -10 7 -15 18 -13 21 4 19 22 -2 26 -10 2 -16 -3 -16
-13z"/>
<path d="M590 975 c-19 -23 -8 -50 20 -50 19 0 26 6 28 24 5 35 -26 53 -48 26z"/>
<path d="M672 978 c-30 -30 3 -77 40 -57 30 16 16 69 -17 69 -6 0 -16 -5 -23
-12z"/>
<path d="M2453 983 c-18 -6 -16 -48 1 -62 19 -16 56 2 56 27 0 32 -26 48 -57
35z"/>
<path d="M2536 974 c-9 -8 -16 -18 -16 -22 1 -38 63 -42 68 -5 4 30 -31 49
-52 27z"/>
<path d="M340 965 c-15 -18 -5 -35 21 -35 12 0 19 7 19 19 0 24 -25 34 -40 16z"/>
<path d="M420 964 c-11 -12 -10 -18 3 -32 16 -15 18 -15 33 0 19 18 12 48 -9
48 -8 0 -20 -7 -27 -16z"/>
<path d="M502 968 c-14 -14 2 -48 22 -48 20 0 37 25 30 44 -7 19 -35 21 -52 4z"/>
<path d="M2614 966 c-10 -26 4 -48 28 -44 17 2 23 10 23 28 0 18 -6 26 -23 28
-13 2 -25 -3 -28 -12z"/>
<path d="M2707 974 c-13 -13 -7 -42 10 -48 21 -8 36 6 31 30 -3 19 -29 30 -41
18z"/>
<path d="M2797 974 c-16 -16 -7 -44 14 -44 15 0 20 5 17 22 -3 22 -19 33 -31
22z"/>
<path d="M6 963 c-11 -11 -6 -23 9 -23 8 0 15 4 15 9 0 13 -16 22 -24 14z"/>
<path d="M96 963 c-11 -11 -6 -23 9 -23 8 0 15 4 15 9 0 13 -16 22 -24 14z"/>
<path d="M170 956 c0 -21 21 -31 30 -15 5 7 6 17 4 21 -9 14 -34 9 -34 -6z"/>
<path d="M252 953 c5 -26 38 -29 38 -4 0 15 -6 21 -21 21 -14 0 -19 -5 -17
-17z"/>
<path d="M2875 960 c-4 -7 -3 -16 3 -22 14 -14 45 -2 40 15 -6 16 -34 21 -43
7z"/>
<path d="M2964 959 c-10 -17 13 -36 27 -22 12 12 4 33 -11 33 -5 0 -12 -5 -16
-11z"/>
<path d="M461 886 c-17 -20 -2 -48 23 -44 24 3 34 37 14 49 -18 12 -24 11 -37
-5z"/>
<path d="M547 893 c-13 -13 -7 -51 9 -57 20 -8 44 11 44 34 0 23 -37 39 -53
23z"/>
<path d="M627 894 c-15 -16 -7 -53 14 -59 30 -10 58 19 43 43 -12 18 -45 28
-57 16z"/>
<path d="M2401 882 c-12 -23 4 -52 29 -52 25 0 41 30 29 53 -13 22 -46 22 -58
-1z"/>
<path d="M2492 888 c-18 -18 -15 -36 7 -48 15 -7 23 -6 35 6 9 8 16 19 16 23
0 11 -23 31 -35 31 -6 0 -16 -5 -23 -12z"/>
<path d="M2580 885 c-17 -20 -5 -45 20 -45 11 0 23 7 26 15 6 15 -11 45 -26
45 -4 0 -13 -7 -20 -15z"/>
<path d="M217 884 c-14 -15 -6 -34 14 -34 14 0 19 5 17 17 -3 18 -20 27 -31
17z"/>
<path d="M294 875 c-4 -9 -2 -21 3 -26 14 -14 45 1 41 20 -4 22 -37 26 -44 6z"/>
<path d="M377 883 c-12 -11 -7 -33 8 -39 20 -8 45 13 38 32 -5 14 -34 19 -46
7z"/>
<path d="M2662 868 c2 -15 10 -23 23 -23 30 0 27 39 -3 43 -20 3 -23 0 -20
-20z"/>
<path d="M2747 876 c-8 -20 20 -43 35 -28 14 14 3 42 -16 42 -7 0 -16 -6 -19
-14z"/>
<path d="M2835 881 c-8 -15 3 -31 21 -31 9 0 14 7 12 17 -4 20 -24 28 -33 14z"/>
<path d="M50 865 c0 -8 5 -15 10 -15 6 0 10 7 10 15 0 8 -4 15 -10 15 -5 0
-10 -7 -10 -15z"/>
<path d="M130 865 c0 -8 7 -15 15 -15 8 0 15 7 15 15 0 8 -7 15 -15 15 -8 0
-15 -7 -15 -15z"/>
<path d="M2920 865 c0 -10 7 -15 18 -13 21 4 19 22 -2 26 -10 2 -16 -3 -16
-13z"/>
<path d="M675 806 c-25 -18 -11 -56 20 -56 21 0 35 17 35 40 0 19 -37 30 -55
16z"/>
<path d="M750 801 c-14 -27 -2 -51 26 -51 29 0 46 28 33 53 -13 23 -46 22 -59
-2z"/>
<path d="M2360 805 c-6 -8 -9 -23 -5 -35 10 -31 59 -24 63 9 6 37 -34 55 -58
26z"/>
<path d="M2456 807 c-24 -17 -17 -51 11 -55 30 -4 49 31 27 52 -19 19 -16 19
-38 3z"/>
<path d="M427 803 c-15 -14 -7 -43 12 -43 26 0 36 17 21 35 -14 16 -23 19 -33
8z"/>
<path d="M507 804 c-12 -12 -8 -42 6 -47 21 -8 39 8 35 29 -3 19 -29 30 -41
18z"/>
<path d="M584 796 c-10 -26 4 -48 28 -44 17 2 23 10 23 28 0 18 -6 26 -23 28
-13 2 -25 -3 -28 -12z"/>
<path d="M2534 795 c-8 -21 2 -45 19 -45 20 0 40 27 33 45 -7 19 -45 20 -52 0z"/>
<path d="M2616 793 c-4 -9 0 -23 9 -32 13 -14 17 -14 31 1 9 9 14 24 11 32 -8
21 -43 20 -51 -1z"/>
<path d="M2711 801 c-19 -12 -6 -43 16 -39 10 2 18 12 18 22 0 22 -14 29 -34
17z"/>
<path d="M177 793 c-12 -11 -8 -23 8 -23 8 0 15 7 15 15 0 16 -12 20 -23 8z"/>
<path d="M254 789 c-8 -14 11 -33 25 -25 16 10 13 36 -3 36 -8 0 -18 -5 -22
-11z"/>
<path d="M337 793 c-3 -5 -2 -15 3 -22 10 -17 43 -6 38 12 -6 15 -34 22 -41
10z"/>
<path d="M2792 783 c2 -10 10 -18 18 -18 8 0 16 8 18 18 2 12 -3 17 -18 17
-15 0 -20 -5 -18 -17z"/>
<path d="M2882 784 c4 -21 22 -23 26 -1 2 10 -3 17 -13 17 -10 0 -15 -6 -13
-16z"/>
<path d="M2965 789 c-10 -15 1 -23 20 -15 9 3 13 10 10 16 -8 13 -22 13 -30
-1z"/>
<path d="M10 780 c0 -5 5 -10 10 -10 6 0 10 5 10 10 0 6 -4 10 -10 10 -5 0
-10 -4 -10 -10z"/>
<path d="M90 780 c0 -5 4 -10 9 -10 6 0 13 5 16 10 3 6 -1 10 -9 10 -9 0 -16
-4 -16 -10z"/>
<path d="M2155 727 c-10 -8 -16 -23 -13 -38 2 -19 9 -24 33 -24 25 0 31 4 33
27 4 34 -26 54 -53 35z"/>
<path d="M552 721 c-20 -12 -10 -46 14 -49 25 -4 40 24 23 44 -13 16 -19 17
-37 5z"/>
<path d="M630 716 c-18 -22 -5 -46 25 -46 23 0 26 4 23 27 -3 32 -29 41 -48
19z"/>
<path d="M711 716 c-9 -11 -10 -20 -1 -36 13 -24 38 -23 53 1 23 37 -25 68
-52 35z"/>
<path d="M794 716 c-10 -26 1 -51 22 -54 27 -4 47 21 39 48 -7 24 -53 28 -61
6z"/>
<path d="M2231 716 c-16 -20 3 -56 29 -56 26 0 45 36 29 56 -6 8 -19 14 -29
14 -10 0 -23 -6 -29 -14z"/>
<path d="M2315 710 c-7 -23 10 -50 30 -50 20 0 37 27 30 50 -4 13 -15 20 -30
20 -15 0 -26 -7 -30 -20z"/>
<path d="M2404 716 c-10 -26 4 -48 28 -44 17 2 23 10 23 28 0 18 -6 26 -23 28
-13 2 -25 -3 -28 -12z"/>
<path d="M2494 715 c-9 -23 4 -47 23 -43 22 4 30 38 11 49 -19 13 -28 11 -34
-6z"/>
<path d="M297 706 c-7 -16 1 -26 20 -26 7 0 13 9 13 20 0 23 -25 27 -33 6z"/>
<path d="M382 698 c2 -12 10 -23 18 -23 22 0 19 39 -3 43 -15 3 -18 -1 -15
-20z"/>
<path d="M462 698 c4 -30 43 -33 43 -3 0 13 -8 21 -23 23 -20 3 -23 0 -20 -20z"/>
<path d="M2576 711 c-9 -13 4 -41 18 -41 18 0 35 21 29 36 -6 16 -39 19 -47 5z"/>
<path d="M2663 704 c-8 -22 18 -37 36 -20 7 8 10 19 7 25 -10 16 -36 13 -43
-5z"/>
<path d="M2757 714 c-14 -14 -7 -35 11 -32 9 2 17 10 17 17 0 16 -18 25 -28
15z"/>
<path d="M50 700 c0 -5 5 -10 10 -10 6 0 10 5 10 10 0 6 -4 10 -10 10 -5 0
-10 -4 -10 -10z"/>
<path d="M132 699 c2 -6 8 -10 13 -10 5 0 11 4 13 10 2 6 -4 11 -13 11 -9 0
-15 -5 -13 -11z"/>
<path d="M213 698 c2 -7 10 -13 17 -13 7 0 15 6 18 13 2 7 -5 12 -18 12 -13 0
-20 -5 -17 -12z"/>
<path d="M2837 704 c-9 -10 2 -24 19 -24 8 0 14 7 14 15 0 15 -21 21 -33 9z"/>
<path d="M2922 698 c6 -18 28 -21 28 -4 0 9 -7 16 -16 16 -9 0 -14 -5 -12 -12z"/>
<path d="M840 635 c-18 -22 -8 -50 19 -50 32 0 49 28 32 49 -17 20 -35 20 -51
1z"/>
<path d="M920 635 c-6 -8 -9 -23 -5 -35 8 -25 51 -27 64 -2 20 38 -31 71 -59
37z"/>
<path d="M1007 643 c-14 -13 -7 -53 11 -62 37 -20 70 27 40 57 -13 13 -41 16
-51 5z"/>
<path d="M2191 636 c-21 -25 -4 -58 27 -54 23 2 27 8 27 33 0 23 -5 31 -21 33
-11 2 -26 -4 -33 -12z"/>
<path d="M2280 635 c-17 -20 -8 -49 16 -53 30 -4 48 21 34 47 -13 25 -33 27
-50 6z"/>
<path d="M511 631 c-19 -12 -6 -43 16 -39 10 2 18 12 18 22 0 22 -14 29 -34
17z"/>
<path d="M590 625 c-15 -18 -5 -35 20 -35 23 0 32 13 24 34 -8 20 -28 21 -44
1z"/>
<path d="M674 626 c-9 -24 4 -48 23 -44 12 2 18 12 18 28 0 29 -32 41 -41 16z"/>
<path d="M754 626 c-10 -26 4 -48 28 -44 17 2 23 10 23 28 0 18 -6 26 -23 28
-13 2 -25 -3 -28 -12z"/>
<path d="M2360 615 c0 -31 26 -43 47 -22 21 21 9 47 -22 47 -20 0 -25 -5 -25
-25z"/>
<path d="M2444 625 c-4 -9 0 -23 8 -31 20 -20 50 -7 46 20 -4 26 -45 35 -54
11z"/>
<path d="M2534 626 c-8 -21 3 -36 27 -36 15 0 20 6 17 22 -4 27 -35 37 -44 14z"/>
<path d="M2627 633 c-15 -14 -7 -43 12 -43 23 0 34 23 18 39 -13 13 -21 14
-30 4z"/>
<path d="M176 622 c-3 -6 -1 -14 5 -17 15 -10 25 3 12 16 -7 7 -13 7 -17 1z"/>
<path d="M260 616 c0 -9 7 -16 16 -16 17 0 14 22 -4 28 -7 2 -12 -3 -12 -12z"/>
<path d="M340 616 c0 -8 4 -17 9 -20 11 -7 33 18 24 27 -12 12 -33 7 -33 -7z"/>
<path d="M422 613 c2 -10 10 -18 18 -18 8 0 16 8 18 18 2 12 -3 17 -18 17 -15
0 -20 -5 -18 -17z"/>
<path d="M2707 623 c-3 -5 -2 -15 3 -22 10 -17 43 -6 38 12 -6 15 -34 22 -41
10z"/>
<path d="M2794 619 c-10 -17 13 -36 27 -22 12 12 4 33 -11 33 -5 0 -12 -5 -16
-11z"/>
<path d="M2880 615 c0 -8 7 -15 15 -15 8 0 15 7 15 15 0 8 -7 15 -15 15 -8 0
-15 -7 -15 -15z"/>
<path d="M2970 615 c0 -8 5 -15 10 -15 6 0 10 7 10 15 0 8 -4 15 -10 15 -5 0
-10 -7 -10 -15z"/>
<path d="M10 609 c0 -5 5 -7 10 -4 6 3 10 8 10 11 0 2 -4 4 -10 4 -5 0 -10 -5
-10 -11z"/>
<path d="M95 610 c3 -5 8 -10 11 -10 2 0 4 5 4 10 0 6 -5 10 -11 10 -5 0 -7
-4 -4 -10z"/>
<path d="M1055 556 c-20 -15 -17 -44 7 -59 12 -8 21 -7 32 2 36 30 -1 85 -39
57z"/>
<path d="M1135 554 c-19 -20 -16 -43 8 -58 37 -23 77 35 41 61 -23 17 -29 16
-49 -3z"/>
<path d="M1987 559 c-37 -21 -8 -77 33 -64 13 4 20 15 20 30 0 29 -28 47 -53
34z"/>
<path d="M642 551 c-19 -11 -11 -45 11 -49 9 -2 20 4 23 13 9 21 -16 47 -34
36z"/>
<path d="M714 545 c-9 -23 3 -45 25 -45 23 0 35 28 20 46 -15 18 -38 18 -45
-1z"/>
<path d="M794 546 c-10 -26 4 -48 28 -44 17 2 23 10 23 28 0 18 -6 26 -23 28
-13 2 -25 -3 -28 -12z"/>
<path d="M882 548 c-16 -16 -15 -23 4 -42 21 -22 56 -3 52 27 -3 25 -37 34
-56 15z"/>
<path d="M967 553 c-13 -12 -7 -51 8 -57 34 -13 66 24 44 50 -12 15 -41 19
-52 7z"/>
<path d="M2067 553 c-13 -12 -7 -51 8 -57 34 -13 66 24 44 50 -12 15 -41 19
-52 7z"/>
<path d="M2152 548 c-17 -17 -15 -36 7 -47 27 -15 56 9 47 37 -8 24 -35 29
-54 10z"/>
<path d="M2234 546 c-10 -26 4 -48 28 -44 17 2 23 10 23 28 0 18 -6 26 -23 28
-13 2 -25 -3 -28 -12z"/>
<path d="M2324 546 c-9 -24 4 -48 23 -44 24 4 24 52 0 56 -9 2 -20 -4 -23 -12z"/>
<path d="M2417 547 c-12 -8 -16 -19 -11 -30 8 -21 27 -22 44 -1 11 12 11 18
-1 30 -12 12 -18 12 -32 1z"/>
<path d="M306 543 c-12 -12 -6 -33 9 -33 8 0 15 6 15 14 0 17 -14 28 -24 19z"/>
<path d="M387 544 c-14 -14 -7 -35 11 -32 9 2 17 10 17 17 0 16 -18 25 -28 15z"/>
<path d="M465 540 c-8 -14 3 -30 21 -30 8 0 14 9 14 20 0 21 -24 28 -35 10z"/>
<path d="M544 539 c-3 -6 0 -18 9 -26 18 -18 37 -9 37 18 0 21 -34 27 -46 8z"/>
<path d="M2494 535 c-4 -9 -2 -21 3 -26 14 -14 45 1 41 20 -4 22 -37 26 -44 6z"/>
<path d="M2580 531 c0 -15 6 -21 21 -21 25 0 22 33 -4 38 -12 2 -17 -3 -17
-17z"/>
<path d="M2665 541 c-8 -15 3 -31 21 -31 9 0 14 7 12 17 -4 20 -24 28 -33 14z"/>
<path d="M55 530 c-3 -5 -1 -10 4 -10 6 0 11 5 11 10 0 6 -2 10 -4 10 -3 0 -8
-4 -11 -10z"/>
<path d="M135 530 c-3 -5 1 -10 10 -10 9 0 13 5 10 10 -3 6 -8 10 -10 10 -2 0
-7 -4 -10 -10z"/>
<path d="M220 524 c0 -8 5 -12 10 -9 6 3 10 10 10 16 0 5 -4 9 -10 9 -5 0 -10
-7 -10 -16z"/>
<path d="M2752 528 c6 -18 28 -21 28 -4 0 9 -7 16 -16 16 -9 0 -14 -5 -12 -12z"/>
<path d="M2842 529 c2 -6 8 -10 13 -10 5 0 11 4 13 10 2 6 -4 11 -13 11 -9 0
-15 -5 -13 -11z"/>
<path d="M2930 530 c0 -5 5 -10 10 -10 6 0 10 5 10 10 0 6 -4 10 -10 10 -5 0
-10 -4 -10 -10z"/>
<path d="M1014 466 c-20 -15 -14 -43 12 -53 20 -8 47 19 39 39 -9 23 -30 29
-51 14z"/>
<path d="M1090 460 c-9 -16 -8 -25 1 -36 27 -33 75 -2 52 35 -15 24 -40 25
-53 1z"/>
<path d="M1182 471 c-8 -4 -12 -19 -10 -32 4 -29 45 -34 61 -7 19 30 -19 60
-51 39z"/>
<path d="M1261 466 c-21 -25 -4 -58 27 -54 23 2 27 8 27 33 0 23 -5 31 -21 33
-11 2 -26 -4 -33 -12z"/>
<path d="M1341 462 c-13 -25 5 -52 34 -52 15 0 26 7 30 20 13 41 -44 70 -64
32z"/>
<path d="M1432 471 c-8 -4 -12 -19 -10 -32 2 -19 9 -24 33 -24 27 0 30 3 30
30 0 22 -5 31 -20 33 -11 1 -26 -2 -33 -7z"/>
<path d="M1509 464 c-17 -21 0 -48 34 -52 18 -2 27 2 32 18 13 41 -38 68 -66
34z"/>
<path d="M1594 466 c-12 -31 0 -51 31 -51 27 0 30 3 30 30 0 25 -4 30 -28 33
-17 2 -29 -2 -33 -12z"/>
<path d="M1680 465 c-20 -24 -3 -55 30 -55 20 0 31 6 35 20 8 25 -10 50 -35
50 -10 0 -23 -7 -30 -15z"/>
<path d="M1764 466 c-12 -31 0 -51 31 -51 27 0 30 3 30 30 0 25 -4 30 -28 33
-17 2 -29 -2 -33 -12z"/>
<path d="M1849 464 c-9 -11 -10 -20 -2 -32 25 -41 86 -14 63 27 -13 25 -42 27
-61 5z"/>
<path d="M1940 465 c-19 -23 -8 -50 22 -53 19 -2 28 2 33 18 12 39 -29 66 -55
35z"/>
<path d="M2026 464 c-22 -21 -3 -56 27 -52 37 5 33 67 -5 68 -4 0 -14 -7 -22
-16z"/>
<path d="M2114 466 c-20 -15 -13 -43 12 -53 20 -7 45 22 38 42 -8 20 -30 25
-50 11z"/>
<path d="M593 454 c-8 -21 13 -42 28 -27 13 13 5 43 -11 43 -6 0 -13 -7 -17
-16z"/>
<path d="M674 455 c-4 -9 -2 -21 4 -27 15 -15 44 -1 40 19 -4 23 -36 29 -44 8z"/>
<path d="M756 454 c-8 -21 1 -34 24 -34 10 0 21 4 24 9 10 16 -5 41 -24 41
-10 0 -21 -7 -24 -16z"/>
<path d="M837 456 c-8 -20 19 -47 39 -39 22 8 13 47 -12 51 -12 2 -24 -4 -27
-12z"/>
<path d="M927 463 c-13 -12 -7 -41 10 -47 21 -8 48 17 40 38 -6 16 -38 22 -50
9z"/>
<path d="M2197 463 c-13 -12 -7 -41 10 -47 21 -8 48 17 40 38 -6 16 -38 22
-50 9z"/>
<path d="M2276 453 c-5 -11 -1 -22 9 -30 23 -16 47 -5 43 21 -4 27 -43 34 -52
9z"/>
<path d="M2364 456 c-8 -21 3 -36 27 -36 15 0 20 6 17 22 -4 27 -35 37 -44 14z"/>
<path d="M2457 463 c-15 -14 -7 -43 12 -43 26 0 36 17 21 35 -14 16 -23 19
-33 8z"/>
<path d="M2541 457 c-14 -17 3 -41 23 -34 9 4 16 13 16 21 0 19 -26 28 -39 13z"/>
<path d="M266 451 c-4 -7 -5 -15 -2 -18 9 -9 19 4 14 18 -4 11 -6 11 -12 0z"/>
<path d="M347 453 c-12 -11 -8 -23 8 -23 8 0 15 7 15 15 0 16 -12 20 -23 8z"/>
<path d="M425 450 c-3 -6 1 -13 10 -16 19 -8 30 0 20 15 -8 14 -22 14 -30 1z"/>
<path d="M510 446 c0 -8 4 -17 9 -20 11 -7 33 18 24 27 -12 12 -33 7 -33 -7z"/>
<path d="M2622 443 c2 -10 10 -18 18 -18 8 0 16 8 18 18 2 12 -3 17 -18 17
-15 0 -20 -5 -18 -17z"/>
<path d="M2710 445 c0 -8 7 -15 15 -15 8 0 15 7 15 15 0 8 -7 15 -15 15 -8 0
-15 -7 -15 -15z"/>
<path d="M2800 445 c0 -8 5 -15 10 -15 6 0 10 7 10 15 0 8 -4 15 -10 15 -5 0
-10 -7 -10 -15z"/>
<path d="M2886 451 c-4 -5 -2 -12 3 -15 5 -4 12 -2 15 3 4 5 2 12 -3 15 -5 4
-12 2 -15 -3z"/>
<path d="M180 439 c0 -5 5 -7 10 -4 6 3 10 8 10 11 0 2 -4 4 -10 4 -5 0 -10
-5 -10 -11z"/>
<path d="M2970 439 c0 -5 5 -7 10 -4 6 3 10 8 10 11 0 2 -4 4 -10 4 -5 0 -10
-5 -10 -11z"/>
<path d="M813 383 c-16 -6 -17 -39 -2 -49 6 -3 18 1 27 10 14 14 14 18 2 30
-8 7 -21 12 -27 9z"/>
<path d="M884 376 c-9 -24 4 -48 23 -44 12 2 18 12 18 28 0 29 -32 41 -41 16z"/>
<path d="M970 376 c-18 -22 -5 -48 22 -44 17 2 23 10 23 28 0 29 -26 38 -45
16z"/>
<path d="M1050 375 c-15 -18 2 -45 30 -45 23 0 34 28 19 46 -15 18 -33 18 -49
-1z"/>
<path d="M1134 376 c-10 -26 4 -48 28 -44 17 2 23 10 23 28 0 18 -6 26 -23 28
-13 2 -25 -3 -28 -12z"/>
<path d="M1215 370 c-9 -27 1 -40 30 -40 29 0 39 13 30 40 -9 27 -51 27 -60 0z"/>
<path d="M1307 384 c-12 -12 -8 -41 8 -54 20 -17 47 5 43 34 -3 21 -37 34 -51
20z"/>
<path d="M1387 384 c-13 -14 -7 -43 12 -53 24 -13 55 8 50 35 -4 19 -48 32
-62 18z"/>
<path d="M1467 376 c-14 -35 23 -67 50 -45 8 7 13 22 11 33 -4 26 -52 35 -61
12z"/>
<path d="M1553 374 c-6 -17 6 -45 23 -51 21 -7 47 23 40 45 -9 27 -53 30 -63
6z"/>
<path d="M1637 376 c-14 -35 23 -67 50 -45 8 7 13 22 11 33 -4 26 -52 35 -61
12z"/>
<path d="M1727 383 c-14 -13 -7 -43 12 -53 23 -12 56 14 47 37 -3 8 -6 17 -6
19 0 7 -46 5 -53 -3z"/>
<path d="M1811 377 c-18 -23 -2 -49 28 -45 20 2 26 8 26 28 0 29 -34 40 -54
17z"/>
<path d="M1894 376 c-10 -26 4 -48 28 -44 17 2 23 10 23 28 0 18 -6 26 -23 28
-13 2 -25 -3 -28 -12z"/>
<path d="M1984 375 c-9 -23 3 -45 25 -45 23 0 35 28 20 46 -15 18 -38 18 -45
-1z"/>
<path d="M2070 376 c-18 -22 -5 -48 22 -44 17 2 23 10 23 28 0 29 -26 38 -45
16z"/>
<path d="M2154 376 c-9 -24 4 -48 23 -44 24 4 24 52 0 56 -9 2 -20 -4 -23 -12z"/>
<path d="M474 366 c-4 -9 -4 -20 0 -23 3 -4 12 -1 18 5 9 9 9 15 0 24 -9 9
-13 7 -18 -6z"/>
<path d="M557 374 c-14 -14 -7 -35 11 -32 9 2 17 10 17 17 0 16 -18 25 -28 15z"/>
<path d="M635 370 c-8 -14 3 -30 21 -30 8 0 14 9 14 20 0 21 -24 28 -35 10z"/>
<path d="M715 370 c-9 -15 14 -40 31 -33 22 8 18 43 -5 43 -11 0 -23 -5 -26
-10z"/>
<path d="M2237 366 c-3 -8 1 -20 9 -27 12 -10 18 -9 31 3 8 9 12 21 9 27 -10
16 -43 14 -49 -3z"/>
<path d="M2324 365 c-8 -19 12 -36 33 -28 19 7 12 37 -10 41 -9 2 -20 -4 -23
-13z"/>
<path d="M2410 360 c0 -13 7 -20 20 -20 13 0 20 7 20 20 0 13 -7 20 -20 20
-13 0 -20 -7 -20 -20z"/>
<path d="M2497 366 c-7 -16 1 -26 20 -26 7 0 13 9 13 20 0 23 -25 27 -33 6z"/>
<path d="M2584 369 c-10 -17 13 -36 27 -22 12 12 4 33 -11 33 -5 0 -12 -5 -16
-11z"/>
<path d="M220 360 c0 -5 5 -10 10 -10 6 0 10 5 10 10 0 6 -4 10 -10 10 -5 0
-10 -4 -10 -10z"/>
<path d="M300 360 c0 -5 7 -10 15 -10 8 0 15 5 15 10 0 6 -7 10 -15 10 -8 0
-15 -4 -15 -10z"/>
<path d="M382 358 c6 -18 28 -21 28 -4 0 9 -7 16 -16 16 -9 0 -14 -5 -12 -12z"/>
<path d="M2672 359 c2 -6 8 -10 13 -10 5 0 11 4 13 10 2 6 -4 11 -13 11 -9 0
-15 -5 -13 -11z"/>
<path d="M2760 360 c0 -5 5 -10 10 -10 6 0 10 5 10 10 0 6 -4 10 -10 10 -5 0
-10 -4 -10 -10z"/>
<path d="M2845 360 c-3 -5 -1 -10 4 -10 6 0 11 5 11 10 0 6 -2 10 -4 10 -3 0
-8 -4 -11 -10z"/>
<path d="M1443 303 c-18 -7 -16 -52 2 -59 18 -7 45 12 45 32 0 16 -30 33 -47
27z"/>
<path d="M1522 298 c-25 -25 0 -64 32 -52 21 8 21 50 0 58 -20 8 -18 8 -32 -6z"/>
<path d="M1606 294 c-12 -12 -13 -20 -6 -35 12 -22 30 -25 48 -7 18 18 15 36
-7 48 -15 7 -23 6 -35 -6z"/>
<path d="M1692 298 c-16 -16 -15 -33 2 -47 31 -26 63 18 34 47 -15 15 -21 15
-36 0z"/>
<path d="M1776 294 c-18 -18 -6 -54 19 -54 25 0 37 36 19 54 -8 9 -17 16 -19
16 -2 0 -11 -7 -19 -16z"/>
<path d="M763 284 c-7 -19 11 -39 26 -30 16 10 13 33 -4 40 -9 3 -18 -1 -22
-10z"/>
<path d="M844 285 c-4 -9 -2 -21 4 -27 15 -15 44 -1 40 19 -4 23 -36 29 -44 8z"/>
<path d="M928 288 c-8 -21 2 -38 24 -38 14 0 19 6 16 22 -3 25 -33 36 -40 16z"/>
<path d="M1017 294 c-4 -4 -7 -16 -7 -26 0 -14 6 -19 23 -16 14 2 22 10 22 23
0 20 -25 32 -38 19z"/>
<path d="M1094 285 c-8 -19 3 -35 26 -35 19 0 30 17 23 38 -6 17 -42 15 -49
-3z"/>
<path d="M1176 284 c-4 -10 -2 -22 3 -27 15 -15 46 -3 46 18 0 26 -40 33 -49
9z"/>
<path d="M1260 276 c0 -29 22 -39 46 -22 24 18 11 46 -21 46 -20 0 -25 -5 -25
-24z"/>
<path d="M1343 284 c-8 -21 19 -46 40 -38 9 3 17 17 17 30 0 19 -5 24 -25 24
-14 0 -28 -7 -32 -16z"/>
<path d="M1853 284 c-3 -8 2 -23 11 -32 15 -15 17 -15 32 0 9 9 14 24 11 32
-8 21 -46 21 -54 0z"/>
<path d="M1940 275 c0 -20 5 -25 25 -25 20 0 25 5 25 25 0 20 -5 25 -25 25
-20 0 -25 -5 -25 -25z"/>
<path d="M2024 285 c-4 -9 -2 -21 4 -27 16 -16 47 -5 47 17 0 26 -42 34 -51
10z"/>
<path d="M2117 294 c-4 -4 -7 -16 -7 -26 0 -14 6 -19 23 -16 14 2 22 10 22 23
0 20 -25 32 -38 19z"/>
<path d="M2196 284 c-4 -10 -2 -22 3 -27 14 -14 43 0 39 20 -4 24 -34 28 -42
7z"/>
<path d="M2284 285 c-7 -18 3 -35 21 -35 18 0 26 25 12 39 -15 15 -27 14 -33
-4z"/>
<path d="M2373 284 c-7 -19 11 -39 26 -30 16 10 13 33 -4 40 -9 3 -18 -1 -22
-10z"/>
<path d="M430 275 c0 -8 5 -15 10 -15 6 0 10 7 10 15 0 8 -4 15 -10 15 -5 0
-10 -7 -10 -15z"/>
<path d="M510 275 c0 -8 7 -15 15 -15 8 0 15 7 15 15 0 8 -7 15 -15 15 -8 0
-15 -7 -15 -15z"/>
<path d="M595 280 c-3 -6 1 -13 10 -16 19 -8 30 0 20 15 -8 14 -22 14 -30 1z"/>
<path d="M680 275 c0 -8 7 -15 15 -15 8 0 15 7 15 15 0 8 -7 15 -15 15 -8 0
-15 -7 -15 -15z"/>
<path d="M2457 283 c-13 -12 -7 -23 13 -23 11 0 20 7 20 15 0 15 -21 21 -33 8z"/>
<path d="M2540 275 c0 -8 7 -15 15 -15 8 0 15 7 15 15 0 8 -7 15 -15 15 -8 0
-15 -7 -15 -15z"/>
<path d="M2630 275 c0 -9 5 -15 11 -13 6 2 11 8 11 13 0 5 -5 11 -11 13 -6 2
-11 -4 -11 -13z"/>
<path d="M2716 281 c-4 -5 -2 -12 3 -15 5 -4 12 -2 15 3 4 5 2 12 -3 15 -5 4
-12 2 -15 -3z"/>
<path d="M350 269 c0 -5 5 -7 10 -4 6 3 10 8 10 11 0 2 -4 4 -10 4 -5 0 -10
-5 -10 -11z"/>
<path d="M1145 206 c-19 -14 -19 -16 -2 -33 16 -16 18 -16 34 0 15 15 16 19 2
32 -13 13 -17 13 -34 1z"/>
<path d="M1231 210 c-19 -11 -9 -45 14 -45 13 0 21 8 23 21 3 23 -17 37 -37
24z"/>
<path d="M1310 204 c-11 -12 -10 -18 3 -32 16 -15 18 -15 34 0 13 14 14 20 3
32 -7 9 -16 16 -20 16 -4 0 -13 -7 -20 -16z"/>
<path d="M1394 206 c-9 -24 4 -48 23 -44 12 2 18 12 18 28 0 29 -32 41 -41 16z"/>
<path d="M1483 213 c-18 -7 -16 -42 3 -50 8 -3 23 1 31 10 13 13 14 19 3 31
-13 17 -17 18 -37 9z"/>
<path d="M1564 206 c-9 -24 4 -48 23 -44 12 2 18 12 18 28 0 29 -32 41 -41 16z"/>
<path d="M1653 213 c-18 -7 -16 -42 3 -50 8 -3 23 1 31 10 13 13 14 19 3 31
-13 17 -17 18 -37 9z"/>
<path d="M1734 205 c-9 -23 4 -47 23 -43 22 4 30 38 11 49 -19 13 -28 11 -34
-6z"/>
<path d="M1823 213 c-19 -7 -16 -40 4 -47 21 -8 36 6 31 30 -3 19 -16 25 -35
17z"/>
<path d="M1913 213 c-16 -6 -17 -39 -2 -49 6 -3 18 1 27 10 14 14 14 18 2 30
-8 7 -21 12 -27 9z"/>
<path d="M644 196 c-8 -22 3 -33 18 -18 9 9 9 15 0 24 -9 9 -13 7 -18 -6z"/>
<path d="M727 204 c-14 -14 -7 -35 11 -32 9 2 17 10 17 17 0 16 -18 25 -28 15z"/>
<path d="M805 200 c-8 -14 3 -30 21 -30 8 0 14 9 14 20 0 21 -24 28 -35 10z"/>
<path d="M885 200 c-4 -7 -3 -16 3 -22 14 -14 45 -2 40 15 -6 16 -34 21 -43 7z"/>
<path d="M970 190 c0 -13 7 -20 20 -20 13 0 20 7 20 20 0 13 -7 20 -20 20 -13
0 -20 -7 -20 -20z"/>
<path d="M1055 200 c-9 -15 14 -40 31 -33 22 8 18 43 -5 43 -11 0 -23 -5 -26
-10z"/>
<path d="M1985 200 c-9 -15 14 -40 31 -33 22 8 18 43 -5 43 -11 0 -23 -5 -26
-10z"/>
<path d="M2070 190 c0 -13 7 -20 20 -20 13 0 20 7 20 20 0 13 -7 20 -20 20
-13 0 -20 -7 -20 -20z"/>
<path d="M2155 200 c-4 -7 -3 -16 3 -22 14 -14 45 -2 40 15 -6 16 -34 21 -43
7z"/>
<path d="M2244 199 c-10 -17 13 -36 27 -22 12 12 4 33 -11 33 -5 0 -12 -5 -16
-11z"/>
<path d="M2330 190 c0 -11 7 -20 15 -20 8 0 15 9 15 20 0 11 -7 20 -15 20 -8
0 -15 -9 -15 -20z"/>
<path d="M2414 199 c-10 -17 13 -36 27 -22 12 12 4 33 -11 33 -5 0 -12 -5 -16
-11z"/>
<path d="M390 190 c0 -5 5 -10 10 -10 6 0 10 5 10 10 0 6 -4 10 -10 10 -5 0
-10 -4 -10 -10z"/>
<path d="M470 190 c0 -5 7 -10 16 -10 8 0 12 5 9 10 -3 6 -10 10 -16 10 -5 0
-9 -4 -9 -10z"/>
<path d="M550 190 c0 -5 7 -10 15 -10 8 0 15 5 15 10 0 6 -7 10 -15 10 -8 0
-15 -4 -15 -10z"/>
<path d="M2500 190 c0 -5 7 -10 15 -10 8 0 15 5 15 10 0 6 -7 10 -15 10 -8 0
-15 -4 -15 -10z"/>
<path d="M2590 190 c0 -5 5 -10 10 -10 6 0 10 5 10 10 0 6 -4 10 -10 10 -5 0
-10 -4 -10 -10z"/>
<path d="M2670 190 c0 -5 5 -10 10 -10 6 0 10 5 10 10 0 6 -4 10 -10 10 -5 0
-10 -4 -10 -10z"/>
<path d="M1021 117 c-9 -11 -8 -17 4 -27 12 -10 16 -9 21 5 9 23 -10 40 -25
22z"/>
<path d="M1103 114 c-8 -21 13 -42 28 -27 13 13 5 43 -11 43 -6 0 -13 -7 -17
-16z"/>
<path d="M1183 114 c-9 -23 13 -40 32 -24 12 10 13 16 4 26 -15 18 -28 18 -36
-2z"/>
<path d="M1267 117 c-3 -8 -2 -20 3 -27 11 -18 42 -4 38 17 -4 22 -34 29 -41
10z"/>
<path d="M1354 115 c-7 -18 3 -35 21 -35 15 0 24 19 18 38 -6 17 -32 15 -39
-3z"/>
<path d="M1434 115 c-4 -9 -2 -21 4 -27 15 -15 44 -1 40 19 -4 23 -36 29 -44
8z"/>
<path d="M1524 115 c-7 -18 3 -35 21 -35 15 0 24 19 18 38 -6 17 -32 15 -39
-3z"/>
<path d="M1604 115 c-4 -9 -2 -21 4 -27 15 -15 44 -1 40 19 -4 23 -36 29 -44
8z"/>
<path d="M1690 105 c0 -18 5 -25 19 -25 20 0 31 17 24 38 -3 6 -13 12 -24 12
-14 0 -19 -7 -19 -25z"/>
<path d="M1774 115 c-4 -9 -2 -21 4 -27 15 -15 44 -1 40 19 -4 23 -36 29 -44
8z"/>
<path d="M1863 114 c-8 -21 13 -42 28 -27 13 13 5 43 -11 43 -6 0 -13 -7 -17
-16z"/>
<path d="M1944 115 c-7 -18 3 -35 21 -35 18 0 26 15 19 34 -8 20 -33 21 -40 1z"/>
<path d="M2033 114 c-8 -21 13 -42 28 -27 13 13 5 43 -11 43 -6 0 -13 -7 -17
-16z"/>
<path d="M2121 117 c-9 -11 -8 -17 4 -27 12 -10 16 -9 21 5 9 23 -10 40 -25
22z"/>
<path d="M520 104 c0 -8 5 -12 10 -9 6 4 8 11 5 16 -9 14 -15 11 -15 -7z"/>
<path d="M600 105 c0 -8 5 -15 10 -15 6 0 10 7 10 15 0 8 -4 15 -10 15 -5 0
-10 -7 -10 -15z"/>
<path d="M680 104 c0 -17 22 -14 28 4 2 7 -3 12 -12 12 -9 0 -16 -7 -16 -16z"/>
<path d="M765 111 c-7 -12 12 -24 25 -16 11 7 4 25 -10 25 -5 0 -11 -4 -15 -9z"/>
<path d="M850 105 c0 -8 7 -15 15 -15 8 0 15 7 15 15 0 8 -7 15 -15 15 -8 0
-15 -7 -15 -15z"/>
<path d="M930 105 c0 -8 9 -15 20 -15 11 0 20 7 20 15 0 8 -9 15 -20 15 -11 0
-20 -7 -20 -15z"/>
<path d="M2200 105 c0 -10 7 -15 18 -13 21 4 19 22 -2 26 -10 2 -16 -3 -16
-13z"/>
<path d="M2287 114 c-9 -10 2 -24 19 -24 8 0 14 7 14 15 0 15 -21 21 -33 9z"/>
<path d="M2370 105 c0 -8 7 -15 15 -15 8 0 15 7 15 15 0 8 -7 15 -15 15 -8 0
-15 -7 -15 -15z"/>
<path d="M2460 105 c0 -9 5 -15 11 -13 6 2 11 8 11 13 0 5 -5 11 -11 13 -6 2
-11 -4 -11 -13z"/>
<path d="M2546 111 c-4 -5 -2 -12 3 -15 5 -4 12 -2 15 3 4 5 2 12 -3 15 -5 4
-12 2 -15 -3z"/>
<path d="M895 30 c-4 -6 -3 -16 3 -22 6 -6 12 -6 17 2 4 6 3 16 -3 22 -6 6
-12 6 -17 -2z"/>
<path d="M974 29 c-10 -17 13 -36 27 -22 12 12 4 33 -11 33 -5 0 -12 -5 -16
-11z"/>
<path d="M1062 23 c5 -25 28 -28 28 -4 0 12 -6 21 -16 21 -9 0 -14 -7 -12 -17z"/>
<path d="M1144 29 c-10 -17 13 -36 27 -22 12 12 4 33 -11 33 -5 0 -12 -5 -16
-11z"/>
<path d="M1230 20 c0 -11 7 -20 15 -20 8 0 15 9 15 20 0 11 -7 20 -15 20 -8 0
-15 -9 -15 -20z"/>
<path d="M1310 19 c0 -14 5 -19 17 -17 26 5 29 38 4 38 -15 0 -21 -6 -21 -21z"/>
<path d="M1395 30 c-4 -7 -3 -16 3 -22 14 -14 45 -2 40 15 -6 16 -34 21 -43 7z"/>
<path d="M1480 20 c0 -15 5 -20 18 -18 9 2 17 10 17 18 0 8 -8 16 -17 18 -13
2 -18 -3 -18 -18z"/>
<path d="M1565 30 c-8 -14 3 -30 21 -30 8 0 14 9 14 20 0 21 -24 28 -35 10z"/>
<path d="M1650 20 c0 -15 5 -20 18 -18 9 2 17 10 17 18 0 8 -8 16 -17 18 -13
2 -18 -3 -18 -18z"/>
<path d="M1735 30 c-8 -14 3 -30 21 -30 8 0 14 9 14 20 0 21 -24 28 -35 10z"/>
<path d="M1820 20 c0 -15 5 -20 18 -18 9 2 17 10 17 18 0 8 -8 16 -17 18 -13
2 -18 -3 -18 -18z"/>
<path d="M1904 29 c-8 -14 11 -33 25 -25 16 10 13 36 -3 36 -8 0 -18 -5 -22
-11z"/>
<path d="M1990 20 c0 -11 7 -20 15 -20 8 0 15 9 15 20 0 11 -7 20 -15 20 -8 0
-15 -9 -15 -20z"/>
<path d="M2074 29 c-10 -17 13 -36 27 -22 12 12 4 33 -11 33 -5 0 -12 -5 -16
-11z"/>
<path d="M2165 30 c-4 -6 -3 -16 3 -22 6 -6 12 -6 17 2 4 6 3 16 -3 22 -6 6
-12 6 -17 -2z"/>
<path d="M560 20 c0 -5 5 -10 10 -10 6 0 10 5 10 10 0 6 -4 10 -10 10 -5 0
-10 -4 -10 -10z"/>
<path d="M640 20 c0 -5 5 -10 10 -10 6 0 10 5 10 10 0 6 -4 10 -10 10 -5 0
-10 -4 -10 -10z"/>
<path d="M730 20 c0 -5 5 -10 10 -10 6 0 10 5 10 10 0 6 -4 10 -10 10 -5 0
-10 -4 -10 -10z"/>
<path d="M810 20 c0 -5 7 -10 15 -10 8 0 15 5 15 10 0 6 -7 10 -15 10 -8 0
-15 -4 -15 -10z"/>
<path d="M2250 20 c0 -5 5 -10 10 -10 6 0 10 5 10 10 0 6 -4 10 -10 10 -5 0
-10 -4 -10 -10z"/>
<path d="M2330 20 c0 -5 7 -10 15 -10 8 0 15 5 15 10 0 6 -7 10 -15 10 -8 0
-15 -4 -15 -10z"/>
<path d="M2420 20 c0 -5 5 -10 10 -10 6 0 10 5 10 10 0 6 -4 10 -10 10 -5 0
-10 -4 -10 -10z"/>
</g>
</svg>
