<?xml version="1.0" standalone="no"?>
<!DOCTYPE svg PUBLIC "-//W3C//DTD SVG 20010904//EN"
 "http://www.w3.org/TR/2001/REC-SVG-20010904/DTD/svg10.dtd">
<svg version="1.0" xmlns="http://www.w3.org/2000/svg"
 width="300.000000pt" height="300.000000pt" viewBox="0 0 300.000000 300.000000"
 preserveAspectRatio="xMidYMid meet">

<g transform="translate(0.000000,300.000000) scale(0.100000,-0.100000)"
fill="#000000" stroke="none">
<path d="M1370 2960 c-252 -18 -512 -120 -740 -291 -69 -52 -205 -179 -240
-225 -101 -131 -137 -188 -187 -289 -24 -49 -48 -97 -53 -106 -48 -89 -110
-393 -110 -546 0 -130 34 -338 77 -463 106 -313 294 -561 564 -741 54 -37 118
-74 143 -82 40 -14 44 -14 59 3 8 10 13 21 10 24 -3 3 2 21 11 40 9 19 16 39
16 45 0 11 35 94 51 121 21 34 79 158 79 168 0 5 -32 31 -72 58 -166 111 -310
289 -381 469 -52 132 -61 190 -61 370 -1 147 2 168 28 260 48 166 119 290 238
413 141 146 321 241 523 274 92 14 287 17 358 4 36 -6 47 -5 47 5 0 7 6 20 14
28 7 9 23 59 35 111 12 52 31 123 42 156 16 53 27 154 15 154 -2 0 -39 9 -82
19 -95 23 -242 31 -384 21z m-493 -2686 c-3 -3 -12 -4 -19 -1 -8 3 -5 6 6 6
11 1 17 -2 13 -5z"/>
</g>
</svg>
